/* XPM */
static const char *Texteditoralignleft[]={
"24 24 191 2",
"Qt c None",
"#m c #926d49",
"a8 c #929249",
"a0 c #92926d",
".# c #b6926d",
"af c #80804d",
".9 c #99804d",
".v c #998066",
".i c #b39966",
".2 c #7b6c45",
"am c #7b6c4a",
"at c #7b7153",
"aP c #847653",
".K c #847658",
"aE c #897b5d",
".w c #a29371",
".V c #696250",
"aD c #696254",
"au c #6c6557",
".L c #938c7a",
"#Z c #756b4d",
"#s c #7c6b43",
"a7 c #867554",
"a1 c #908361",
"#4 c #94835b",
".h c #9a8a6b",
".a c #a19072",
"#n c #a19475",
"#f c #5b5540",
"a# c #5d5746",
"aZ c #6e6655",
"ae c #726c59",
"aQ c #7e766a",
".u c #877c72",
".j c #8f897a",
"#. c #938d7c",
"#y c #514f4f",
"#T c #5a5a5a",
"a6 c #5c5c5c",
"#Y c #686666",
".g c #858181",
".b c #878383",
"#t c #888585",
"#F c #676464",
"a5 c #696868",
"a2 c #727070",
"#O c #747272",
"#S c #777474",
".f c #8f8c8c",
".c c #908d8d",
"#z c #928d8d",
"a4 c #757272",
"a3 c #797575",
"#J c #7a7979",
"#N c #807e7e",
"#K c #8b8686",
"#G c #949090",
".e c #979494",
".d c #989595",
".8 c #515050",
"ag c #5b5959",
"aO c #686666",
"al c #6c6a6a",
".J c #878383",
"aF c #878484",
".x c #979595",
"#l c #545252",
"#5 c #585656",
"aY c #706f6f",
"a. c #797777",
"aR c #8c8989",
".t c #959292",
"#g c #9e9a9a",
".k c #9e9b9b",
".1 c #6e6b6b",
"aC c #787777",
"as c #7a7878",
"an c #807c7c",
".U c #848181",
"av c #939090",
".M c #a8a5a5",
"#e c #6c6969",
"aa c #737171",
"#0 c #757373",
"#r c #7b7878",
"#6 c #817b71",
"#k c #888171",
".7 c #8a8784",
".5 c #955801",
"#U c #969393",
"aX c #979494",
"aN c #9f9d9d",
"ah c #a09c9b",
"#3 c #a8a4a4",
".0 c #aaa49e",
"#x c #aaa6a6",
"ad c #adaaaa",
"#P c #afacab",
"aS c #b0acac",
"aW c #b2afaf",
"#d c #b39645",
".s c #b3afaf",
"#1 c #b49a50",
".T c #b6b2b1",
"ab c #b79c50",
"#o c #b9b6b6",
"#L c #bcb7b2",
"#C c #c18402",
"aV c #c1bbb4",
"#H c #c1bcb8",
".l c #c1bdbd",
"aB c #c2beba",
"#q c #c3a550",
"#A c #c3bfbf",
"#u c #c4c0c0",
"ao c #c5bfb9",
".r c #c5c1c1",
".I c #c7c0b5",
"## c #c7c3c2",
"aU c #cabfaa",
"aT c #cbc4bf",
"aM c #ccc2ae",
"ak c #ccc8c4",
".y c #cdcac9",
".q c #cecac9",
"#X c #cecbca",
"#E c #cfcac4",
"ar c #d1cabf",
"aw c #d1ccca",
"#h c #d2cdc6",
".p c #d3cdc9",
".S c #d4b86d",
".m c #d4d1d1",
".6 c #d5aa30",
".o c #d5cfcb",
".n c #d5d1d1",
"#p c #d8bf7c",
"aG c #d8cfbf",
"#V c #daad2e",
".H c #dabf75",
".Z c #dbb139",
"#a c #dcc586",
"aL c #dfbf65",
"#v c #e0b53a",
"#I c #e0d6c2",
"#R c #e0dbd4",
".z c #e0dbd5",
".O c #e1ca8b",
".W c #e1dddb",
".4 c #e2bd54",
"ax c #e2c372",
"aH c #e3c36e",
".A c #e3ca87",
"#9 c #e3dac6",
".B c #e4b93e",
"#M c #e4dac5",
"#w c #e5b327",
".G c #e5b839",
"#7 c #e6ae0b",
"aK c #e7b525",
"#j c #e8ae08",
"#Q c #e8b00f",
"#i c #e8b214",
"aI c #e8b72b",
"#B c #e9b213",
".P c #e9b215",
"aA c #e9c86d",
".R c #eab20f",
".F c #eab312",
".C c #eab315",
".D c #ebb003",
".Q c #ecb002",
".E c #ecb003",
"aJ c #ecb005",
"#D c #ecb106",
"az c #ecb208",
"ay c #ecb20c",
"#8 c #edb209",
"aq c #eec13c",
"#W c #efbd2d",
"aj c #efc23d",
"ac c #f0d176",
"#2 c #f2d279",
".Y c #3f0000",
"#b c #965801",
"#c c #c18402",
"ai c #dbb138",
".3 c #dbd8d7",
".N c #dfdddc",
"ap c #e3b83e",
".X c #e3be54",
"QtQtQtQtQtQtQt.#.a.b.c.d.e.f.g.h.#QtQtQtQtQtQtQt",
"QtQtQtQtQt.i.j.k.l.m.n.o.p.q.r.s.t.u.vQtQtQtQtQt",
"QtQtQtQt.w.x.y.z.A.B.C.D.E.F.G.H.I.s.J.KQtQtQtQt",
"QtQtQt.L.M.N.O.P.Q.Q.Q.Q.Q.Q.Q.Q.R.S.T.U.VQtQtQt",
"QtQt.w.M.W.X.Q.Q.Y.Y.Y.Y.Y.Y.Y.Y.Y.Q.Z.0.1.2QtQt",
"Qt.i.x.3.4.Q.Q.Q.5.5.5.5.5.5.5.5.5.Q.Q.6.7.8.9Qt",
"Qt#.###a.Q.Q.Q.Q#b#b#b#b#b#c.Q.Q.Q.Q.Q.Q#d#e#fQt",
".##g#h#i.Q.Q.Q.Q.Y.Y.Y.Y.Y#b.Q.Q.Q.Q.Q.Q#j#k#l#m",
"#n#o#p.Q.Q.Q.Q.Q.Q.Q.Q.Q.Q.Q.Q.Q.Q.Q.Q.Q.Q#q#r#s",
"#t#u#v.Q.Q.Q.Q.Q.Y.Y.Y.Y.Y.Y.Y.5.Q.Q.Q.Q.Q#w#x#y",
"#z#A#B.Q.Q.Q.Q.Q.5.5.5.5.5.5.5#C.Q.Q.Q.Q.Q#D#E#F",
"#G#H.E.Q.Q.Q.Q.Q.5.5.5.5.5.5.5.5.5.5.Q.Q.Q.Q#I#J",
"#K#L.D.Q.Q.Q.Q.Q.Y.Y.Y.Y.Y.Y.Y.Y.Y.Y.Q.Q.Q.Q#M#N",
"#O#P#Q.Q.Q.Q.Q.Q.Q.Q.Q.Q.Q.Q.Q.Q.Q.Q.Q.Q.Q#D#R#S",
"#T#U#V.Q.Q.Q.Q.Q.Y.Y.Y.Y.Y.Y.Y.Q.Q.Q.Q.Q.Q#W#X#Y",
"#Z#0#1.Q.Q.Q.Q.Q.5.5.5.5.5.5.5.Q.Q.Q.Q.Q.Q#2#3#4",
"#m#5#6#7.Q.Q.Q.Q#b#b#b#b#b#b#b#b#b#b#b#C#8#9a..#",
"Qta#aaab.Q.Q.Q.Q.Y.Y.Y.Y.Y.Y.Y.Y.Y.Y.Y.5acadaeQt",
"Qtafagahai.Q.Q.Q#b#b#b#b#b#b.Q.Q.Q.Q.Qajakal.9Qt",
"QtQtamanaoap.Q.Q.Y.Y.Y.Y.Y.Y.Q.Q.Q.QaqarasatQtQt",
"QtQtQtauavawaxay.Q.Q.Q.Q.Q.Q.Q.QazaAaBaCaDQtQtQt",
"QtQtQtQtaEaF.laGaHaI#D.Q.QaJaKaLaMaNaOaPQtQtQtQt",
"QtQtQtQtQt.vaQaRaS#AaTaMaUaVaWaXaYaZ.9QtQtQtQtQt",
"QtQtQtQtQtQtQta0a1#Ya2a3a4a5a6a7a8QtQtQtQtQtQtQt"};
