/* XPM */
static const char *Texteditortonttypesize[]={
"24 24 288 2",
"Qt c None",
"#w c #6d6d49",
"bx c #926d49",
"cD c #929249",
"bE c #92926d",
".i c #b6926d",
".# c #b6b66d",
"#c c #80664d",
"bL c #80804d",
"bS c #99804d",
"cl c #999966",
".j c #b39966",
".5 c #766745",
"bT c #7b6c4a",
"ck c #847653",
"b0 c #897b53",
"c# c #897b5d",
".K c #8e7b58",
".w c #988e71",
".W c #a29371",
".V c #6c6250",
"c. c #6c6554",
"b1 c #6c6557",
".L c #8f887a",
"#M c #6b6143",
"br c #756b4d",
"cC c #867554",
"bw c #86795b",
"cw c #908361",
"#x c #a19475",
".h c #a4946b",
".a c #a49772",
"#l c #575140",
"bF c #5d5546",
"cv c #6e6655",
"bK c #726c59",
"cm c #817a6a",
".v c #8d8572",
".k c #938b7a",
"#d c #938d7c",
"#7 c #514f4f",
"a9 c #5a5a5a",
"cB c #5c5c5c",
"bq c #686666",
".g c #858181",
".b c #878383",
"#N c #888585",
"ao c #676464",
"cA c #696868",
"cx c #727070",
"aS c #747272",
"a8 c #777474",
".f c #8f8c8c",
".c c #908d8d",
"#8 c #928d8d",
"cz c #757272",
"cy c #797575",
"az c #7a7979",
"aR c #807e7e",
"aA c #8b8686",
"ap c #949090",
".e c #979494",
".d c #989595",
"#b c #515050",
"bM c #5b5959",
"cj c #686666",
"bR c #6c6a6a",
".J c #878383",
"ca c #878484",
".x c #979595",
"#v c #545252",
"by c #585656",
"cu c #706f6f",
"bD c #797777",
"cn c #8c8989",
".u c #959292",
"#m c #9e9a9a",
".l c #9e9b9b",
".4 c #6e6b6b",
"b9 c #787777",
"bZ c #7a7878",
"bU c #807c7c",
".U c #848181",
"b2 c #939090",
".M c #a8a5a5",
"#k c #6c6969",
"#. c #6e3000",
"#T c #6e604c",
"bG c #737171",
"bs c #757373",
"#L c #7b7878",
"#g c #7c3e01",
"#D c #7c4001",
"bz c #817b71",
"#2 c #847305",
"#u c #888171",
"#Q c #8a4d00",
"#a c #8a8784",
"#G c #928358",
"b. c #969393",
"ct c #979494",
"#F c #987307",
"#H c #98750f",
"aI c #997b27",
"aC c #9b5d01",
"#E c #9b7401",
"ci c #9f9d9d",
"bN c #a09c9b",
"bv c #a8a4a4",
".3 c #aaa49e",
"#6 c #aaa6a6",
"bJ c #adaaaa",
".8 c #af7201",
"aT c #afacab",
"co c #b0acac",
"#s c #b27501",
"cs c #b2afaf",
"#j c #b39645",
".t c #b3afaf",
"aD c #b47801",
"bt c #b49a50",
"#I c #b68802",
".T c #b6b2b1",
"bH c #b79c50",
"#y c #b9b6b6",
".0 c #bb7e01",
"aB c #bcb7b2",
"#A c #c18402",
"cr c #c1bbb4",
"aq c #c1bcb8",
".m c #c1bdbd",
"b8 c #c2beba",
"#K c #c3a550",
"#9 c #c3bfbf",
"#J c #c49202",
"#O c #c4c0c0",
"bV c #c5bfb9",
".s c #c5c1c1",
"bl c #c79502",
".I c #c7c0b5",
"#e c #c7c3c2",
"aF c #c88c01",
"aE c #c98c02",
"aY c #ca8f02",
"cq c #cabfaa",
"cp c #cbc4bf",
"ch c #ccc2ae",
"bQ c #ccc8c4",
".y c #cdcac9",
".r c #cecac9",
"bp c #cecbca",
"ar c #cf9302",
"an c #cfcac4",
".1 c #d19402",
"bY c #d1cabf",
"b3 c #d1ccca",
"#n c #d2cdc6",
"bf c #d39d02",
".q c #d3cdc9",
"be c #d49702",
".S c #d4b86d",
".n c #d4d1d1",
"## c #d5aa30",
".p c #d5cfcb",
".o c #d5d1d1",
"#z c #d8bf7c",
"cb c #d8cfbf",
"b# c #daad2e",
".H c #dabf75",
".2 c #dbb139",
"bc c #dca002",
"#f c #dcc586",
"#S c #dea202",
"cg c #dfbf65",
"#P c #e0b53a",
"ay c #e0d6c2",
"a7 c #e0dbd4",
".z c #e0dbd5",
".O c #e1ca8b",
".X c #e1dddb",
"#i c #e2a602",
".7 c #e2bd54",
"b4 c #e2c372",
"cc c #e3c36e",
".A c #e3ca87",
"bC c #e3dac6",
".Z c #e4a802",
".B c #e4b93e",
"aQ c #e4dac5",
"#5 c #e5b327",
".G c #e5b839",
"bA c #e6ae0b",
"cf c #e7b525",
"a# c #e8ac02",
"#t c #e8ae08",
"aU c #e8b00f",
"#o c #e8b214",
"cd c #e8b72b",
"a. c #e9b213",
".P c #e9b215",
"b7 c #e9c86d",
"aV c #eaae02",
".R c #eab20f",
".F c #eab312",
".C c #eab315",
".D c #ebb003",
".Q c #ecb002",
".E c #ecb003",
"ce c #ecb005",
"am c #ecb106",
"b6 c #ecb208",
"b5 c #ecb20c",
"bB c #edb209",
"bX c #eec13c",
"bo c #efbd2d",
"bP c #efc23d",
"bI c #f0d176",
"bu c #f2d279",
"#3 c #313000",
"a6 c #3b3b3a",
".9 c #3e0000",
"#B c #3f0100",
"#r c #400200",
"aX c #420400",
"#h c #430400",
"aP c #45452b",
"#R c #490b00",
"ae c #4a3636",
"ad c #4c2f1f",
"af c #4c3e28",
"#p c #501200",
"ab c #511300",
"al c #535300",
"aH c #591b00",
"aa c #5b1d00",
"bm c #5b4401",
"#q c #602200",
"aG c #682a00",
"a5 c #686660",
"at c #6b6450",
"aL c #707070",
"aZ c #756432",
"#4 c #775901",
"bi c #7d6e43",
"bh c #826d30",
"aJ c #828181",
"aO c #848460",
"a1 c #868685",
"as c #874b01",
"#U c #878382",
"bj c #886f26",
"aw c #898989",
"a0 c #8a8a8a",
"aK c #8b8b8b",
"#1 c #93896d",
"bn c #946f02",
"au c #969696",
"#X c #979696",
"ac c #9a5c01",
"bg c #9b7402",
"ak c #9b9b27",
"aW c #9e6101",
"ag c #a6a6a6",
"bd c #a76a01",
"a4 c #a9a8a5",
"a2 c #a9a9a8",
"ba c #aa6c02",
"bk c #ae8202",
"#C c #b27502",
"ah c #b5b5b5",
"bb c #be8102",
"#W c #bfbfbe",
"av c #cdcdcd",
"bO c #dbb138",
".6 c #dbd8d7",
"a3 c #dbdbdb",
"aM c #dddddd",
".N c #dfdddc",
"#V c #e0e0df",
"bW c #e3b83e",
".Y c #e3be54",
"#0 c #f0f0ef",
"#Y c #f6f6f6",
"aN c #fafafa",
"ai c #fbfbfb",
"ax c #fefefd",
"#Z c #fefefe",
"aj c #ffffff",
"QtQtQtQtQtQtQt.#.a.b.c.d.e.f.g.h.iQtQtQtQtQtQtQt",
"QtQtQtQtQt.j.k.l.m.n.o.p.q.r.s.t.u.v.jQtQtQtQtQt",
"QtQtQtQt.w.x.y.z.A.B.C.D.E.F.G.H.I.t.J.KQtQtQtQt",
"QtQtQt.L.M.N.O.P.Q.Q.Q.Q.Q.Q.Q.Q.R.S.T.U.VQtQtQt",
"QtQt.W.M.X.Y.Z.0.1.Q.Q.Q.Q.Q.Q.Q.Q.Q.2.3.4.5QtQt",
"Qt.j.x.6.7.Q.8.9#..Q.Q.Q.Q.Q.Q.Q.Q.Q.Q###a#b#cQt",
"Qt#d#e#f.Q.Q#g.9#h#i.Q.Q.Q.Q.Q.Q.Q.Q.Q.Q#j#k#lQt",
".i#m#n#o.Q#i#p#q#r#s.Q.Q.Q.Q.Q.Q.Q.Q.Q.Q#t#u#v#w",
"#x#y#z.Q.Q#A#B#C#p#D#E#F#G#G#G#G#H.Q.Q#I#J#K#L#M",
"#N#O#P.Q.Q#Q#R#S#T#U#V#W#X#Y#Z#Z#0#1#2#3#4#5#6#7",
"#8#9a..Qa#aaabacadaeafag#Zahagaiajajakal#4amanao",
"apaq.E.Qar#r.9.9.9.9asatauavawax#Z#Zakal#4.Qayaz",
"aAaB.D.QaC#haDaEaFaGaHaIaJaKaLaMajaNaOaP#4.QaQaR",
"aSaTaU.QaGaHaV.Q.QaWaXaYaZa0a1a2a3a4a5a6#4ama7a8",
"a9b.b#.Qbabb.Q.Q.Qbcbdbebfbgbhbibjbkblbmbnbobpbq",
"brbsbt.Q.Q.Q.Q.Q.Q.Q.Q.Q.Q.Q.Q.Q.Q.Q.Q.Q.Qbubvbw",
"bxbybzbA.Q.Q.Q.Q.Q.Q.Q.Q.Q.Q.Q.Q.Q.Q.Q.QbBbCbDbE",
"QtbFbGbH.Q.Q.Q.Q.Q.Q.Q.Q.Q.Q.Q.Q.Q.Q.Q.QbIbJbKQt",
"QtbLbMbNbO.Q.Q.Q.Q.Q.Q.Q.Q.Q.Q.Q.Q.Q.QbPbQbRbSQt",
"QtQtbTbUbVbW.Q.Q.Q.Q.Q.Q.Q.Q.Q.Q.Q.QbXbYbZb0QtQt",
"QtQtQtb1b2b3b4b5.Q.Q.Q.Q.Q.Q.Q.Qb6b7b8b9c.QtQtQt",
"QtQtQtQtc#ca.mcbcccdam.Q.QcecfcgchcicjckQtQtQtQt",
"QtQtQtQtQtclcmcnco#9cpchcqcrcsctcucvbSQtQtQtQtQt",
"QtQtQtQtQtQtQtbEcwbqcxcyczcAcBcCcDQtQtQtQtQtQtQt"};
