/* XPM */
static const char *Texteditorredo[]={
"24 24 249 2",
"Qt c None",
"#o c #926d49",
"b2 c #929249",
"bU c #92926d",
".i c #b6926d",
".# c #b6b66d",
"a8 c #80804d",
".7 c #99804d",
"be c #99994d",
"bJ c #999966",
".j c #b39966",
".1 c #7b6c45",
"bf c #7b6c4a",
"bI c #847653",
"bm c #897b53",
"bx c #897b5d",
".K c #8e7b58",
".w c #a29371",
".V c #6c6250",
"bw c #6c6554",
"bn c #6c6557",
".L c #938c7a",
"aL c #756b4d",
"#C c #7c6b43",
"b1 c #867554",
"bV c #908361",
"aS c #94835b",
"#p c #a19475",
".h c #a4946b",
".a c #a49772",
"#d c #5b5540",
"a1 c #5d5746",
"bT c #6e6655",
"a7 c #746e59",
"bK c #817a6a",
".v c #8d8572",
".8 c #938d7c",
".k c #958d7a",
"#S c #514f4f",
"aB c #5a5a5a",
"b0 c #5c5c5c",
"aK c #686666",
".g c #858181",
".b c #878383",
"#D c #888585",
"#3 c #676464",
"bZ c #696868",
"bW c #727070",
"aq c #747272",
"aA c #777474",
".f c #8f8c8c",
".c c #908d8d",
"#T c #928d8d",
"bY c #757272",
"bX c #797575",
"ac c #7a7979",
"ap c #807e7e",
"ad c #8b8686",
"#4 c #949090",
".e c #979494",
".d c #989595",
".6 c #515050",
"a9 c #5b5959",
"bH c #686666",
"bd c #6c6a6a",
".J c #878383",
"by c #878484",
".x c #979595",
"#n c #545252",
"aT c #585656",
"bS c #706f6f",
"a0 c #797777",
"bL c #8c8989",
".u c #959292",
"#e c #9e9a9a",
".l c #9e9b9b",
".0 c #6e6b6b",
"bv c #787777",
"bl c #7a7878",
"bg c #807c7c",
".U c #848181",
"bo c #939090",
".M c #a8a5a5",
"#c c #6c6969",
"a2 c #737171",
"aM c #757373",
"#B c #7b7878",
"## c #80610a",
"aU c #817b71",
"#H c #827550",
"#m c #888171",
".5 c #8a8784",
"am c #925218",
"#u c #958044",
"aP c #965202",
"at c #966b0a",
"aC c #969393",
"bR c #979494",
"aj c #998345",
"av c #9b7d24",
"aG c #9c7612",
"aX c #9d6d01",
"bG c #9f9d9d",
"b. c #a09c9b",
"#t c #a27d13",
"aR c #a8a4a4",
".Z c #aaa49e",
"#R c #aaa6a6",
"aE c #ac5f13",
"#6 c #ad6603",
"a6 c #adaaaa",
"ar c #afacab",
"bM c #b0acac",
"bQ c #b2afaf",
"#b c #b39645",
".t c #b3afaf",
"aN c #b49a50",
".T c #b6b2b1",
"a3 c #b79c50",
"#q c #b9b6b6",
"ak c #bb9115",
"ae c #bcb7b2",
"#a c #bf910d",
"bP c #c1bbb4",
"#5 c #c1bcb8",
".m c #c1bdbd",
"bu c #c2beba",
"#A c #c3a550",
"#U c #c3bfbf",
"#E c #c4c0c0",
"bh c #c5bfb9",
".s c #c5c1c1",
".I c #c7c0b5",
".9 c #c7c3c2",
"#k c #c89604",
"bO c #cabfaa",
"ba c #cb990a",
"bN c #cbc4bf",
"bF c #ccc2ae",
"bc c #ccc8c4",
".y c #cdcac9",
".r c #cecac9",
"aJ c #cecbca",
"#z c #cf9b04",
"#2 c #cfcac4",
"bk c #d1cabf",
"bp c #d1ccca",
"#f c #d2cdc6",
".q c #d3cdc9",
"af c #d49e02",
".S c #d4b86d",
".n c #d4d1d1",
".4 c #d5aa30",
".p c #d5cfcb",
".o c #d5d1d1",
"ay c #d6a209",
"#G c #d7a103",
"#r c #d8bf7c",
"bz c #d8cfbf",
"aD c #daad2e",
".H c #dabf75",
".Y c #dbb139",
"an c #dca506",
"#. c #dcc586",
"#W c #dda502",
"aH c #dda604",
"#P c #dfa602",
"bE c #dfbf65",
"aa c #e0a804",
"#F c #e0b53a",
"ab c #e0d6c2",
"az c #e0dbd4",
".z c #e0dbd5",
".O c #e1ca8b",
".W c #e1dddb",
".3 c #e2bd54",
"bq c #e2c372",
"#h c #e3a902",
"bA c #e3c36e",
".A c #e3ca87",
"aZ c #e3dac6",
".B c #e4b93e",
"ao c #e4dac5",
"#Q c #e5b327",
".G c #e5b839",
"aV c #e6ae0b",
"bD c #e7b525",
"aw c #e8ad02",
"#l c #e8ae08",
"as c #e8b00f",
"#g c #e8b214",
"bB c #e8b72b",
"#V c #e9b213",
".P c #e9b215",
"bt c #e9c86d",
"#s c #eaae02",
".R c #eab20f",
".F c #eab312",
".C c #eab315",
".D c #ebb003",
".Q c #ecb002",
".E c #ecb003",
"bC c #ecb005",
"#1 c #ecb106",
"bs c #ecb208",
"br c #ecb20c",
"aY c #edb209",
"bj c #eec13c",
"aI c #efbd2d",
"bb c #efc23d",
"a5 c #f0d176",
"aQ c #f2d279",
"#v c #66645d",
"a4 c #6d6243",
"ai c #745837",
"ax c #76642e",
"#i c #7b5221",
"#y c #7c6950",
"#X c #7d6c44",
"#O c #826a43",
"#0 c #865d17",
"#w c #875435",
"#j c #886b4f",
"al c #8c5826",
"a# c #915a1d",
"#I c #996a4e",
"#9 c #a0572c",
"aW c #a05b32",
"#J c #a35221",
"aO c #ad6031",
"a. c #b55b25",
"#Y c #b85214",
"#8 c #bb500f",
"au c #bb5311",
"ah c #c25817",
"ag c #c55005",
"#K c #d45407",
"aF c #da5606",
"#N c #da590c",
"b# c #dbb138",
".2 c #dbd8d7",
".N c #dfdddc",
"#7 c #e35b08",
"bi c #e3b83e",
".X c #e3be54",
"#x c #e95c06",
"#L c #ef5e06",
"#Z c #f66106",
"#M c #fe6407",
"QtQtQtQtQtQtQt.#.a.b.c.d.e.f.g.h.iQtQtQtQtQtQtQt",
"QtQtQtQtQt.j.k.l.m.n.o.p.q.r.s.t.u.v.jQtQtQtQtQt",
"QtQtQtQt.w.x.y.z.A.B.C.D.E.F.G.H.I.t.J.KQtQtQtQt",
"QtQtQt.L.M.N.O.P.Q.Q.Q.Q.Q.Q.Q.Q.R.S.T.U.VQtQtQt",
"QtQt.w.M.W.X.Q.Q.Q.Q.Q.Q.Q.Q.Q.Q.Q.Q.Y.Z.0.1QtQt",
"Qt.j.x.2.3.Q.Q.Q.Q.Q.Q.Q.Q.Q.Q.Q.Q.Q.Q.4.5.6.7Qt",
"Qt.8.9#..Q.Q.Q.Q.Q.Q.Q.Q.Q.Q###a.Q.Q.Q.Q#b#c#dQt",
".i#e#f#g.Q.Q.Q.Q.Q.Q.Q.Q.Q#h#i#j#k.Q.Q.Q#l#m#n#o",
"#p#q#r.Q.Q.Q.Q.Q.Q.Q#s#t#u#v#w#x#y#z.Q.Q.Q#A#B#C",
"#D#E#F.Q.Q.Q.Q.Q.Q#G#H#I#J#K#L#M#N#O#P.Q.Q#Q#R#S",
"#T#U#V.Q.Q.Q.Q.Q#W#X#Y#M#M#M#M#M#Z#0.Q.Q.Q#1#2#3",
"#4#5.E.Q.Q.Q.Q.Q#6#7#M#Z#8#9a.#Za#aa.Q.Q.Q.Qabac",
"adae.D.Q.Q.Q.Qafag#Mahaiajakalaman.Q.Q.Q.Q.Qaoap",
"aqaras.Q.Q.Q.Qat#Mauavaw.Q.Qaxay.Q.Q.Q.Q.Q#1azaA",
"aBaCaD.Q.Q.Q.QaEaFaG.Q.Q.Q.QaH.Q.Q.Q.Q.Q.QaIaJaK",
"aLaMaN.Q.Q.Q.QaOaP.Q.Q.Q.Q.Q.Q.Q.Q.Q.Q.Q.QaQaRaS",
"#oaTaUaV.Q.Q.QaWaX.Q.Q.Q.Q.Q.Q.Q.Q.Q.Q.QaYaZa0.i",
"Qta1a2a3.Q.Q.Qa4#P.Q.Q.Q.Q.Q.Q.Q.Q.Q.Q.Qa5a6a7Qt",
"Qta8a9b.b#.Q.Qba.Q.Q.Q.Q.Q.Q.Q.Q.Q.Q.QbbbcbdbeQt",
"QtQtbfbgbhbi.Q.Q.Q.Q.Q.Q.Q.Q.Q.Q.Q.QbjbkblbmQtQt",
"QtQtQtbnbobpbqbr.Q.Q.Q.Q.Q.Q.Q.QbsbtbubvbwQtQtQt",
"QtQtQtQtbxby.mbzbAbB#1.Q.QbCbDbEbFbGbHbIQtQtQtQt",
"QtQtQtQtQtbJbKbLbM#UbNbFbObPbQbRbSbT.7QtQtQtQtQt",
"QtQtQtQtQtQtQtbUbVaKbWbXbYbZb0b1b2QtQtQtQtQtQtQt"};
