/* XPM */
static const char *Texteditorbold[]={
"24 24 198 2",
"Qt c None",
"#r c #926d49",
"bd c #929249",
"a7 c #92926d",
".i c #b6926d",
".# c #b6b66d",
"ak c #80804d",
"#. c #99804d",
"ar c #99994d",
"aW c #999966",
".j c #b39966",
".1 c #7b6c45",
"as c #7b6c4a",
"aV c #847653",
".K c #897658",
"az c #897b53",
"aK c #897b5d",
".w c #a29371",
".V c #6c6250",
"aJ c #6c6554",
"aA c #6c6557",
".L c #938c7a",
"#4 c #756b4d",
"#x c #7c6b43",
"bc c #867554",
"a8 c #908361",
"#9 c #94835b",
"#s c #a19475",
".h c #a4946b",
".a c #a49772",
"#h c #5b5540",
"ae c #5d5746",
"a6 c #6e6655",
"aj c #746e59",
"aX c #817a6a",
".v c #8d8572",
"## c #938d7c",
".k c #958d7a",
"#D c #514f4f",
"#Y c #5a5a5a",
"bb c #5c5c5c",
"#3 c #686666",
".g c #858181",
".b c #878383",
"#y c #888585",
"#K c #676464",
"ba c #696868",
"a9 c #727070",
"#T c #747272",
"#X c #777474",
".f c #8f8c8c",
".c c #908d8d",
"#E c #928d8d",
"b# c #757272",
"b. c #797575",
"#O c #7a7979",
"#S c #807e7e",
"#P c #8b8686",
"#L c #949090",
".e c #979494",
".d c #989595",
".9 c #515050",
"al c #5b5959",
"aU c #686666",
"aq c #6c6a6a",
".J c #878383",
"aL c #878484",
".x c #979595",
"#q c #545252",
"a. c #585656",
"a5 c #706f6f",
"ad c #797777",
"aY c #8c8989",
".u c #959292",
"#i c #9e9a9a",
".l c #9e9b9b",
".0 c #6e6b6b",
"aI c #787777",
"ay c #7a7878",
"at c #807c7c",
".U c #848181",
"aB c #939090",
".M c #a8a5a5",
"#g c #6c6969",
"af c #737171",
"#5 c #757373",
"#c c #783a00",
"#w c #7b7878",
"a# c #817b71",
"#p c #888171",
".8 c #8a8784",
".5 c #955801",
"#Z c #969393",
"a4 c #979494",
"aT c #9f9d9d",
"am c #a09c9b",
".6 c #a46701",
"#8 c #a8a4a4",
".Z c #aaa49e",
"#C c #aaa6a6",
"ai c #adaaaa",
"#U c #afacab",
"aZ c #b0acac",
".4 c #b27501",
"a3 c #b2afaf",
"#f c #b39645",
".t c #b3afaf",
"#6 c #b49a50",
".T c #b6b2b1",
"ag c #b79c50",
"#t c #b9b6b6",
"#Q c #bcb7b2",
"a2 c #c1bbb4",
"#M c #c1bcb8",
".m c #c1bdbd",
"aH c #c2beba",
"#v c #c3a550",
"#F c #c3bfbf",
"#z c #c4c0c0",
"au c #c5bfb9",
".s c #c5c1c1",
".I c #c7c0b5",
"#a c #c7c3c2",
"a1 c #cabfaa",
"a0 c #cbc4bf",
"aS c #ccc2ae",
"ap c #ccc8c4",
".y c #cdcac9",
".r c #cecac9",
"#2 c #cecbca",
"#J c #cfcac4",
"ax c #d1cabf",
"aC c #d1ccca",
"#j c #d2cdc6",
".q c #d3cdc9",
".S c #d4b86d",
".n c #d4d1d1",
".7 c #d5aa30",
".p c #d5cfcb",
".o c #d5d1d1",
"#u c #d8bf7c",
"aM c #d8cfbf",
"#0 c #daad2e",
".H c #dabf75",
".Y c #dbb139",
"#b c #dcc586",
"aR c #dfbf65",
"#A c #e0b53a",
"#N c #e0d6c2",
"#W c #e0dbd4",
".z c #e0dbd5",
".O c #e1ca8b",
".W c #e1dddb",
".3 c #e2bd54",
"aD c #e2c372",
"aN c #e3c36e",
".A c #e3ca87",
"ac c #e3dac6",
".B c #e4b93e",
"#R c #e4dac5",
"#B c #e5b327",
".G c #e5b839",
"aa c #e6ae0b",
"aQ c #e7b525",
"#o c #e8ae08",
"#V c #e8b00f",
"#k c #e8b214",
"aO c #e8b72b",
"#G c #e9b213",
".P c #e9b215",
"aG c #e9c86d",
".R c #eab20f",
".F c #eab312",
".C c #eab315",
".D c #ebb003",
".Q c #ecb002",
".E c #ecb003",
"aP c #ecb005",
"#I c #ecb106",
"aF c #ecb208",
"aE c #ecb20c",
"ab c #edb209",
"aw c #eec13c",
"#1 c #efbd2d",
"ao c #efc23d",
"ah c #f0d176",
"#7 c #f2d279",
"#d c #3f0000",
"#l c #521300",
"#e c #5c1d00",
"#m c #793b01",
"#n c #8c4e01",
"#H c #965801",
"an c #dbb138",
".2 c #dbd8d7",
".N c #dfdddc",
"av c #e3b83e",
".X c #e3be54",
"QtQtQtQtQtQtQt.#.a.b.c.d.e.f.g.h.iQtQtQtQtQtQtQt",
"QtQtQtQtQt.j.k.l.m.n.o.p.q.r.s.t.u.v.jQtQtQtQtQt",
"QtQtQtQt.w.x.y.z.A.B.C.D.E.F.G.H.I.t.J.KQtQtQtQt",
"QtQtQt.L.M.N.O.P.Q.Q.Q.Q.Q.Q.Q.Q.R.S.T.U.VQtQtQt",
"QtQt.w.M.W.X.Q.Q.Q.Q.Q.Q.Q.Q.Q.Q.Q.Q.Y.Z.0.1QtQt",
"Qt.j.x.2.3.Q.Q.Q.4.5.5.5.5.5.5.5.6.Q.Q.7.8.9#.Qt",
"Qt###a#b.Q.Q.Q.Q#c#d#d#d#d#d#d#d#e.Q.Q.Q#f#g#hQt",
".i#i#j#k.Q.Q.Q.Q#c#d#l#m#m#m#m#m#n.Q.Q.Q#o#p#q#r",
"#s#t#u.Q.Q.Q.Q.Q#c#d#m.Q.Q.Q.Q.Q.Q.Q.Q.Q.Q#v#w#x",
"#y#z#A.Q.Q.Q.Q.Q#c#d#m.Q.Q.Q.Q.Q.Q.Q.Q.Q.Q#B#C#D",
"#E#F#G.Q.Q.Q.Q.Q#c#d#e#H#H#H#H#H.Q.Q.Q.Q.Q#I#J#K",
"#L#M.E.Q.Q.Q.Q.Q#c#d#d#d#d#d#d#d.Q.Q.Q.Q.Q.Q#N#O",
"#P#Q.D.Q.Q.Q.Q.Q#c#d#l#c#c#c#c#c.Q.Q.Q.Q.Q.Q#R#S",
"#T#U#V.Q.Q.Q.Q.Q#c#d#m.Q.Q.Q.Q.Q.Q.Q.Q.Q.Q#I#W#X",
"#Y#Z#0.Q.Q.Q.Q.Q#c#d#m.Q.Q.Q.Q.Q.Q.Q.Q.Q.Q#1#2#3",
"#4#5#6.Q.Q.Q.Q.Q#c#d#m.Q.Q.Q.Q.Q.Q.Q.Q.Q.Q#7#8#9",
"#ra.a#aa.Q.Q.Q.Q#c#d#m.Q.Q.Q.Q.Q.Q.Q.Q.Qabacad.i",
"Qtaeafag.Q.Q.Q.Q#c#d#m.Q.Q.Q.Q.Q.Q.Q.Q.QahaiajQt",
"Qtakalaman.Q.Q.Q.Q.Q.Q.Q.Q.Q.Q.Q.Q.Q.QaoapaqarQt",
"QtQtasatauav.Q.Q.Q.Q.Q.Q.Q.Q.Q.Q.Q.QawaxayazQtQt",
"QtQtQtaAaBaCaDaE.Q.Q.Q.Q.Q.Q.Q.QaFaGaHaIaJQtQtQt",
"QtQtQtQtaKaL.maMaNaO#I.Q.QaPaQaRaSaTaUaVQtQtQtQt",
"QtQtQtQtQtaWaXaYaZ#Fa0aSa1a2a3a4a5a6#.QtQtQtQtQt",
"QtQtQtQtQtQtQta7a8#3a9b.b#babbbcbdQtQtQtQtQtQtQt"};
