/* XPM */
static const char *Texteditorundo[]={
"24 24 247 2",
"Qt c None",
"#p c #926d49",
"b0 c #929249",
"bS c #92926d",
".i c #b6926d",
".# c #b6b66d",
"a8 c #80804d",
".7 c #99804d",
"bd c #99994d",
"bH c #999966",
".j c #b39966",
".1 c #7b6c45",
"be c #7b6c4a",
"bl c #847653",
"bw c #897b5d",
".K c #8e7b58",
".w c #a29371",
".V c #6c6250",
"bv c #6c6554",
"bm c #6c6557",
".L c #938c7a",
"aK c #756b4d",
"#D c #7c6b43",
"bZ c #867554",
"bT c #908361",
"aR c #94835b",
"#q c #a19475",
".h c #a4946b",
".a c #a49772",
"#d c #5b5540",
"a0 c #5d5746",
"bR c #6e6655",
"a7 c #746e59",
"bI c #817a6a",
".v c #8d8572",
".8 c #938d7c",
".k c #958d7a",
"#R c #514f4f",
"aB c #5a5a5a",
"bY c #5c5c5c",
"aJ c #686666",
".g c #858181",
".b c #878383",
"#E c #888585",
"#3 c #676464",
"bX c #696868",
"bU c #727070",
"ar c #747272",
"aA c #777474",
".f c #8f8c8c",
".c c #908d8d",
"#S c #928d8d",
"bW c #757272",
"bV c #797575",
"ad c #7a7979",
"aq c #807e7e",
"ae c #8b8686",
"#4 c #949090",
".e c #979494",
".d c #989595",
".6 c #515050",
"a9 c #5b5959",
"bG c #686666",
"bc c #6c6a6a",
".J c #878383",
"bx c #878484",
".x c #979595",
"#o c #545252",
"aS c #585656",
"bQ c #706f6f",
"aZ c #797777",
"bJ c #8c8989",
".u c #959292",
"#e c #9e9a9a",
".l c #9e9b9b",
".0 c #6e6b6b",
"bu c #787777",
"bk c #7a7878",
"bf c #807c7c",
".U c #848181",
"bn c #939090",
".M c #a8a5a5",
"#c c #6c6969",
"a1 c #737171",
"#a c #74590a",
"aL c #757373",
"al c #775a35",
"#C c #7b7878",
"aT c #817b71",
"#N c #846f34",
"#n c #888171",
"#W c #8a5219",
".5 c #8a8784",
"ah c #8c5e1f",
"#y c #92845d",
"#z c #968042",
"aC c #969393",
"bP c #979494",
"aw c #9b7616",
"ab c #9d6302",
"bF c #9f9d9d",
"b. c #a09c9b",
"#t c #a78522",
"#H c #a8800c",
"ak c #a8892f",
"aQ c #a8a4a4",
".Z c #aaa49e",
"#Q c #aaa6a6",
"#h c #ab861b",
"aV c #ac7402",
"a6 c #adaaaa",
"as c #afacab",
"bK c #b0acac",
"bO c #b2afaf",
"#b c #b39645",
".t c #b3afaf",
"## c #b48b14",
"aM c #b49a50",
".T c #b6b2b1",
"a2 c #b79c50",
"aj c #b9921f",
"#r c #b9b6b6",
"af c #bcb7b2",
"#A c #bd8d02",
"bN c #c1bbb4",
"#5 c #c1bcb8",
".m c #c1bdbd",
"bt c #c2beba",
"#B c #c3a550",
"#T c #c3bfbf",
"#F c #c4c0c0",
"bg c #c5bfb9",
".s c #c5c1c1",
".I c #c7c0b5",
".9 c #c7c3c2",
"bM c #cabfaa",
"bL c #cbc4bf",
"bE c #ccc2ae",
"bb c #ccc8c4",
".y c #cdcac9",
".r c #cecac9",
"aI c #cecbca",
"#k c #cf9a02",
"#2 c #cfcac4",
"ao c #d19c02",
"bj c #d1cabf",
"bo c #d1ccca",
"#f c #d2cdc6",
".q c #d3cdc9",
".S c #d4b86d",
".n c #d4d1d1",
".4 c #d5aa30",
".p c #d5cfcb",
".o c #d5d1d1",
"#s c #d8bf7c",
"by c #d8cfbf",
"#V c #daa305",
"aD c #daad2e",
".H c #dabf75",
"#6 c #dba406",
".Y c #dbb139",
"#. c #dcc586",
"a3 c #dfa702",
"bD c #dfbf65",
"ag c #e0a804",
"#G c #e0b53a",
"ac c #e0d6c2",
"az c #e0dbd4",
".z c #e0dbd5",
"#0 c #e1a802",
".O c #e1ca8b",
".W c #e1dddb",
".3 c #e2bd54",
"bp c #e2c372",
"#O c #e3a902",
"au c #e3aa03",
"bz c #e3c36e",
".A c #e3ca87",
"aY c #e3dac6",
".B c #e4b93e",
"ap c #e4dac5",
"#P c #e5b327",
".G c #e5b839",
"aU c #e6ae0b",
"bC c #e7b525",
"#m c #e8ae08",
"at c #e8b00f",
"#g c #e8b214",
"bA c #e8b72b",
"#U c #e9b213",
".P c #e9b215",
"bs c #e9c86d",
"#l c #eaae02",
".R c #eab20f",
".F c #eab312",
".C c #eab315",
".D c #ebb003",
".Q c #ecb002",
".E c #ecb003",
"bB c #ecb005",
"#1 c #ecb106",
"br c #ecb208",
"bq c #ecb20c",
"aX c #edb209",
"bi c #eec13c",
"aH c #efbd2d",
"ba c #efc23d",
"a5 c #f0d176",
"aP c #f2d279",
"#x c #5f5f5f",
"#9 c #705a4e",
"#Z c #7b6632",
"#M c #826d60",
"#j c #835225",
"ai c #845628",
"#u c #865b40",
"#i c #866247",
"aW c #86634f",
"a. c #8b5332",
"#7 c #8d5820",
"#8 c #935733",
"a4 c #93772a",
"#I c #975b36",
"av c #977d31",
"#w c #985831",
"aN c #a05203",
"ay c #a46f0f",
"#Y c #a85726",
"aE c #aa7907",
"aG c #b16225",
"aO c #b36537",
"#L c #b6581f",
"a# c #be5212",
"am c #c1520e",
"ax c #c15511",
"an c #c85505",
"#K c #d45306",
"b# c #dbb138",
".2 c #dbd8d7",
".N c #dfdddc",
"aF c #e15806",
"bh c #e3b83e",
".X c #e3be54",
"aa c #e85b06",
"#X c #ef5e06",
"#v c #f66106",
"#J c #fe6407",
"QtQtQtQtQtQtQt.#.a.b.c.d.e.f.g.h.iQtQtQtQtQtQtQt",
"QtQtQtQtQt.j.k.l.m.n.o.p.q.r.s.t.u.v.jQtQtQtQtQt",
"QtQtQtQt.w.x.y.z.A.B.C.D.E.F.G.H.I.t.J.KQtQtQtQt",
"QtQtQt.L.M.N.O.P.Q.Q.Q.Q.Q.Q.Q.Q.R.S.T.U.VQtQtQt",
"QtQt.w.M.W.X.Q.Q.Q.Q.Q.Q.Q.Q.Q.Q.Q.Q.Y.Z.0.1QtQt",
"Qt.j.x.2.3.Q.Q.Q.Q.Q.Q.Q.Q.Q.Q.Q.Q.Q.Q.4.5.6.7Qt",
"Qt.8.9#..Q.Q.Q.Q###a.Q.Q.Q.Q.Q.Q.Q.Q.Q.Q#b#c#dQt",
".i#e#f#g.Q.Q.Q#h#i#j#k#l.Q.Q.Q.Q.Q.Q.Q.Q#m#n#o#p",
"#q#r#s.Q.Q.Q#t#u#v#w#x#y#z#A.Q.Q.Q.Q.Q.Q.Q#B#C#D",
"#E#F#G.Q.Q#H#I#J#J#J#J#K#L#M#N#O.Q.Q.Q.Q.Q#P#Q#R",
"#S#T#U.Q.Q#V#W#v#J#J#J#J#J#X#Y#Z#0.Q.Q.Q.Q#1#2#3",
"#4#5.E.Q.Q.Q#6#7#v#8#9a.a##J#Jaaab.Q.Q.Q.Q.Qacad",
"aeaf.D.Q.Q.Q.Qagahai.Qajakalam#Janao.Q.Q.Q.Qapaq",
"arasat.Q.Q.Q.Q.Qauav.Q.Q.Qagawax#Jay.Q.Q.Q#1azaA",
"aBaCaD.Q.Q.Q.Q.Q.Q.Q.Q.Q.Q.Q.QaEaFaG.Q.Q.QaHaIaJ",
"aKaLaM.Q.Q.Q.Q.Q.Q.Q.Q.Q.Q.Q.Q#laNaO.Q.Q.QaPaQaR",
"#paSaTaU.Q.Q.Q.Q.Q.Q.Q.Q.Q.Q.Q.QaVaW.Q.QaXaYaZ.i",
"Qta0a1a2.Q.Q.Q.Q.Q.Q.Q.Q.Q.Q.Q.Qa3a4.Q.Qa5a6a7Qt",
"Qta8a9b.b#.Q.Q.Q.Q.Q.Q.Q.Q.Q.Q.Q.Q.Q.QbabbbcbdQt",
"QtQtbebfbgbh.Q.Q.Q.Q.Q.Q.Q.Q.Q.Q.Q.QbibjbkblQtQt",
"QtQtQtbmbnbobpbq.Q.Q.Q.Q.Q.Q.Q.QbrbsbtbubvQtQtQt",
"QtQtQtQtbwbx.mbybzbA#1.Q.QbBbCbDbEbFbGblQtQtQtQt",
"QtQtQtQtQtbHbIbJbK#TbLbEbMbNbObPbQbR.7QtQtQtQtQt",
"QtQtQtQtQtQtQtbSbTaJbUbVbWbXbYbZb0QtQtQtQtQtQtQt"};
