/* XPM */
static const char *Texteditorsave[]={
"24 24 236 2",
"Qt c None",
"#q c #926d49",
"bP c #929249",
"bH c #92926d",
".i c #b6926d",
".# c #b6b66d",
"aW c #80804d",
".7 c #99804d",
"a3 c #99994d",
"bw c #999966",
".j c #b39966",
".1 c #7b6c45",
"a4 c #7b6c4a",
"bv c #847653",
"b# c #897b53",
"bk c #897b5d",
".K c #8e7b58",
".w c #a29371",
".V c #6c6250",
"bj c #6c6554",
"ba c #6c6557",
".L c #938c7a",
"ax c #756b4d",
"#B c #796b46",
"bO c #867554",
"bI c #908361",
"aG c #94835b",
"#r c #a19475",
".h c #a4946b",
".a c #a49772",
"#d c #5b5342",
"aO c #5d5746",
"bG c #6e6655",
"aV c #746e59",
"bx c #817a6a",
".v c #8d8572",
".8 c #938d7c",
".k c #958d7a",
"#L c #514f4f",
"an c #5a5a5a",
"bN c #5c5c5c",
"aw c #686666",
".g c #858181",
".b c #878383",
"#C c #888585",
"#Y c #676464",
"bM c #696868",
"bJ c #727070",
"ae c #747272",
"am c #777474",
".f c #8f8c8c",
".c c #908d8d",
"#M c #928d8d",
"bL c #757272",
"bK c #797575",
"#6 c #7a7979",
"ad c #807e7e",
"#7 c #8b8686",
"#Z c #949090",
".e c #979494",
".d c #989595",
".6 c #515050",
"aX c #5b5959",
"bu c #686666",
"a2 c #6c6a6a",
".J c #878383",
"bl c #878484",
".x c #979595",
"#p c #545252",
"aH c #585656",
"bF c #706f6f",
"aN c #797777",
"by c #8c8989",
".u c #959292",
"#e c #9e9a9a",
".l c #9e9b9b",
".0 c #6e6b6b",
"bi c #787777",
"b. c #7a7878",
"a5 c #807c7c",
".U c #848181",
"bb c #939090",
".M c #a8a5a5",
"#h c #504115",
"aB c #635429",
"#c c #6c6969",
"aP c #737171",
"ay c #757373",
"#A c #7b7878",
"aI c #817b71",
"#o c #888171",
".5 c #8a8784",
"#l c #948559",
"ao c #969393",
"bE c #979494",
"bt c #9f9d9d",
"aY c #a09c9b",
"aF c #a8a4a4",
".Z c #aaa49e",
"#K c #aaa6a6",
"aU c #adaaaa",
"af c #afacab",
"bz c #b0acac",
"aA c #b18401",
"## c #b18402",
"bD c #b2afaf",
"#b c #b39645",
".t c #b3afaf",
"az c #b49a50",
".T c #b6b2b1",
"aQ c #b79c50",
"#s c #b9b6b6",
"#8 c #bcb7b2",
"bC c #c1bbb4",
"#0 c #c1bcb8",
".m c #c1bdbd",
"bh c #c2beba",
"#z c #c3a550",
"#N c #c3bfbf",
"#D c #c4c0c0",
"a6 c #c5bfb9",
".s c #c5c1c1",
".I c #c7c0b5",
".9 c #c7c3c2",
"bB c #cabfaa",
"bA c #cbc4bf",
"bs c #ccc2ae",
"a1 c #ccc8c4",
".y c #cdcac9",
"aS c #cea11f",
".r c #cecac9",
"av c #cecbca",
"#m c #cfa21f",
"#X c #cfcac4",
"a9 c #d1cabf",
"bc c #d1ccca",
"#f c #d2cdc6",
".q c #d3cdc9",
".S c #d4b86d",
".n c #d4d1d1",
".4 c #d5aa30",
".p c #d5cfcb",
".o c #d5d1d1",
"#t c #d8bf7c",
"bm c #d8cfbf",
"ap c #daad2e",
".H c #dabf75",
".Y c #dbb139",
"#. c #dcc586",
"br c #dfbf65",
"#E c #e0b53a",
"#5 c #e0d6c2",
"al c #e0dbd4",
".z c #e0dbd5",
".O c #e1ca8b",
".W c #e1dddb",
".3 c #e2bd54",
"bd c #e2c372",
"bn c #e3c36e",
".A c #e3ca87",
"aM c #e3dac6",
".B c #e4b93e",
"ac c #e4dac5",
"#J c #e5b327",
".G c #e5b839",
"aJ c #e6ae0b",
"bq c #e7b525",
"#n c #e8ae08",
"ag c #e8b00f",
"#g c #e8b214",
"bo c #e8b72b",
"#O c #e9b213",
".P c #e9b215",
"bg c #e9c86d",
".R c #eab20f",
".F c #eab312",
".C c #eab315",
".D c #ebb003",
".Q c #ecb002",
".E c #ecb003",
"bp c #ecb005",
"#W c #ecb106",
"bf c #ecb208",
"be c #ecb20c",
"aL c #edb209",
"a8 c #eec13c",
"au c #efbd2d",
"a0 c #efc23d",
"aT c #f0d176",
"aE c #f2d279",
"#4 c #111111",
"ab c #191919",
"#j c #1d1d1d",
"aj c #262626",
"#I c #2626bf",
"#y c #2a2a5d",
"#i c #333333",
"#S c #3c3c6f",
"aa c #3f3f3f",
"aR c #433409",
"a# c #454545",
"#v c #484848",
"#Q c #4d4d4d",
"#u c #504116",
"#P c #555555",
"a. c #585859",
"#k c #595959",
"#T c #5a5a5a",
"#2 c #606060",
"aq c #635429",
"#H c #6666ff",
"#9 c #676768",
"#3 c #6f6f6f",
"#U c #777777",
"#x c #7b0000",
"#R c #7f7f7f",
"aK c #858586",
"#1 c #8a8a8a",
"aC c #8f8f91",
"ak c #909090",
"ai c #989898",
"ar c #a7a7a8",
"as c #a8a8a8",
"#V c #b2943d",
"#w c #bb3f3f",
"ah c #bcbcbd",
"at c #c0c0c0",
"#G c #ccccff",
"#a c #cfa220",
"aD c #d7d7d8",
"aZ c #dbb138",
".2 c #dbd8d7",
".N c #dfdddc",
"a7 c #e3b83e",
".X c #e3be54",
"#F c #ffffff",
"QtQtQtQtQtQtQt.#.a.b.c.d.e.f.g.h.iQtQtQtQtQtQtQt",
"QtQtQtQtQt.j.k.l.m.n.o.p.q.r.s.t.u.v.jQtQtQtQtQt",
"QtQtQtQt.w.x.y.z.A.B.C.D.E.F.G.H.I.t.J.KQtQtQtQt",
"QtQtQt.L.M.N.O.P.Q.Q.Q.Q.Q.Q.Q.Q.R.S.T.U.VQtQtQt",
"QtQt.w.M.W.X.Q.Q.Q.Q.Q.Q.Q.Q.Q.Q.Q.Q.Y.Z.0.1QtQt",
"Qt.j.x.2.3.Q.Q.Q.Q.Q.Q.Q.Q.Q.Q.Q.Q.Q.Q.4.5.6.7Qt",
"Qt.8.9#..Q.Q.Q.Q.Q.Q.Q###a#a.Q.Q.Q.Q.Q.Q#b#c#dQt",
".i#e#f#g.Q.Q.Q.Q.Q.Q#h#i#j#k#l#m.Q.Q.Q.Q#n#o#p#q",
"#r#s#t.Q.Q.Q.Q.Q.Q#u#v#v#w#x#y#k#l#m.Q.Q.Q#z#A#B",
"#C#D#E.Q.Q.Q.Q.Q#h#v#v#F#F#G#H#I#y#k#l#m.Q#J#K#L",
"#M#N#O.Q.Q.Q.Q#u#P#Q#R#F#F#F#F#G#S#T#i#U#V#W#X#Y",
"#Z#0.E.Q.Q.Q#h#P#P#P#1#2#R#F#F#3#3#v#4#U#a.Q#5#6",
"#7#8.D.Q.Q#h#P#9a.a#aa#P#1#2#3#3#vab#k#m.Q.Qacad",
"aeafag.Q.Q#9aha.aiajaka#aa#P#3#vab#k#m.Q.Q#Walam",
"anaoap.Q.Q##aq#9arasatat#2#P#vab#k#a.Q.Q.Qauavaw",
"axayaz.Q.Q.Q.QaAaBaCaD#2#3#vab#k#m.Q.Q.Q.QaEaFaG",
"#qaHaIaJ.Q.Q.Q.Q.Q##aB#9aKab#k#m.Q.Q.Q.QaLaMaN.i",
"QtaOaPaQ.Q.Q.Q.Q.Q.Q.QaAaR#kaS.Q.Q.Q.Q.QaTaUaVQt",
"QtaWaXaYaZ.Q.Q.Q.Q.Q.Q.Q.Q.Q.Q.Q.Q.Q.Qa0a1a2a3Qt",
"QtQta4a5a6a7.Q.Q.Q.Q.Q.Q.Q.Q.Q.Q.Q.Qa8a9b.b#QtQt",
"QtQtQtbabbbcbdbe.Q.Q.Q.Q.Q.Q.Q.QbfbgbhbibjQtQtQt",
"QtQtQtQtbkbl.mbmbnbo#W.Q.QbpbqbrbsbtbubvQtQtQtQt",
"QtQtQtQtQtbwbxbybz#NbAbsbBbCbDbEbFbG.7QtQtQtQtQt",
"QtQtQtQtQtQtQtbHbIawbJbKbLbMbNbObPQtQtQtQtQtQtQt"};
