/* XPM */
static const char *Texteditorcut[]={
"24 24 218 2",
"Qt c None",
"#u c #926d49",
"bx c #929249",
"bp c #92926d",
".i c #b6926d",
".# c #b6b66d",
"aD c #80804d",
"## c #99804d",
"aK c #99994d",
"be c #999966",
".j c #b39966",
"aL c #76674a",
".2 c #7b6c45",
"bd c #847653",
"aT c #897b53",
".K c #897b58",
"a4 c #897b5d",
".w c #a29371",
".V c #6c6250",
"a3 c #6c6554",
"aU c #6c6557",
".L c #938c7a",
"aj c #756b4d",
"#C c #7c6b43",
"bw c #867554",
"bq c #908361",
"ap c #94835b",
"#v c #a19475",
".h c #a4946b",
".a c #a49772",
"#k c #5b5540",
"ax c #5d5746",
"bo c #6e6655",
"aC c #746e59",
"bf c #817a6a",
".v c #8d8372",
"#a c #938d7c",
".k c #958d7a",
"#K c #514f4f",
"ac c #5a5a5a",
"bv c #5c5c5c",
"ai c #686666",
".g c #858181",
".b c #878383",
"#D c #888585",
"#T c #676464",
"bu c #696868",
"br c #727070",
"#5 c #747272",
"ab c #777474",
".f c #8f8c8c",
".c c #908d8d",
"#L c #928d8d",
"bt c #757272",
"bs c #797575",
"#Y c #7a7979",
"#4 c #807e7e",
"#Z c #8b8686",
"#U c #949090",
".e c #979494",
".d c #989595",
"#. c #515050",
"aE c #5b5959",
"bc c #686666",
"aJ c #6c6a6a",
".J c #878383",
"a5 c #878484",
".x c #979595",
"#t c #545252",
"aq c #585656",
"bn c #706f6f",
"aw c #797777",
"bg c #8c8989",
".u c #959292",
"#l c #9e9a9a",
".l c #9e9b9b",
".1 c #6e6b6b",
"a2 c #787777",
"aS c #7a7878",
"aM c #807c7c",
".U c #848181",
"aV c #939090",
".M c #a8a5a5",
"#1 c #3b2c00",
".6 c #5b4c20",
"#j c #6c6969",
"ay c #737171",
"ak c #757373",
"#h c #765801",
"am c #7b6c40",
"#B c #7b7878",
"ar c #817b71",
"#s c #888171",
".9 c #8a8784",
"ad c #969393",
"bm c #979494",
"#Q c #9b8c60",
"bb c #9f9d9d",
"aF c #a09c9b",
"ao c #a8a4a4",
".0 c #aaa49e",
"#J c #aaa6a6",
"aB c #adaaaa",
"#6 c #afacab",
"bh c #b0acac",
".Y c #b18401",
".7 c #b18402",
"bl c #b2afaf",
"#i c #b39645",
".t c #b3afaf",
"al c #b49a50",
"at c #b69841",
".T c #b6b2b1",
"az c #b79c50",
"#w c #b9b6b6",
"#0 c #bcb7b2",
"bk c #c1bbb4",
"#V c #c1bcb8",
".m c #c1bdbd",
"a1 c #c2beba",
"#A c #c3a550",
"#M c #c3bfbf",
"#E c #c4c0c0",
"aN c #c5bfb9",
".s c #c5c1c1",
".I c #c7c0b5",
"#b c #c7c3c2",
"bj c #cabfaa",
"bi c #cbc4bf",
"ba c #ccc2ae",
"aI c #ccc8c4",
".y c #cdcac9",
".r c #cecac9",
"ah c #cecbca",
"#S c #cfcac4",
"#H c #d1a421",
"aP c #d1a422",
"aR c #d1cabf",
"aW c #d1ccca",
"#m c #d2cdc6",
".q c #d3cdc9",
".S c #d4b86d",
".n c #d4d1d1",
".8 c #d5aa30",
".p c #d5cfcb",
".o c #d5d1d1",
"#x c #d8bf7c",
"a6 c #d8cfbf",
"ae c #daad2e",
".H c #dabf75",
".Z c #dbb139",
"#c c #dcc586",
"b# c #dfbf65",
"#F c #e0b53a",
"#X c #e0d6c2",
"aa c #e0dbd4",
".z c #e0dbd5",
".O c #e1ca8b",
".W c #e1dddb",
".4 c #e2bd54",
"aX c #e2c372",
"a7 c #e3c36e",
".A c #e3ca87",
"av c #e3dac6",
".B c #e4b93e",
"#3 c #e4dac5",
"#I c #e5b327",
".G c #e5b839",
"as c #e6ae0b",
"b. c #e7b525",
"#r c #e8ae08",
"#7 c #e8b00f",
"#n c #e8b214",
"a8 c #e8b72b",
"#N c #e9b213",
".P c #e9b215",
"a0 c #e9c86d",
".R c #eab20f",
".F c #eab312",
".C c #eab315",
".D c #ebb003",
".Q c #ecb002",
".E c #ecb003",
"a9 c #ecb005",
"#R c #ecb106",
"aZ c #ecb208",
"aY c #ecb20c",
"au c #edb209",
"aQ c #eec13c",
"ag c #efbd2d",
"aH c #efc23d",
"aA c #f0d176",
"an c #f2d279",
"#G c #000000",
"#y c #202020",
".5 c #303030",
"#8 c #3b2c00",
"#2 c #3f3f3f",
"#f c #404040",
"#p c #505050",
"af c #5f2020",
"#g c #606060",
"#O c #6b5c30",
"#d c #765801",
"#o c #7f7f7f",
"#z c #808080",
"#q c #909090",
"#W c #9b8c60",
"a. c #9f2020",
"#P c #afafaf",
"a# c #b69841",
"aG c #dbb138",
".3 c #dbd8d7",
".N c #dfdddc",
"#e c #dfdfdf",
"aO c #e3b83e",
".X c #e3be54",
"#9 c #fa2c00",
"QtQtQtQtQtQtQt.#.a.b.c.d.e.f.g.h.iQtQtQtQtQtQtQt",
"QtQtQtQtQt.j.k.l.m.n.o.p.q.r.s.t.u.v.jQtQtQtQtQt",
"QtQtQtQt.w.x.y.z.A.B.C.D.E.F.G.H.I.t.J.KQtQtQtQt",
"QtQtQt.L.M.N.O.P.Q.Q.Q.Q.Q.Q.Q.Q.R.S.T.U.VQtQtQt",
"QtQt.w.M.W.X.Q.Q.Q.Q.Q.Q.Q.Q.Y.Q.Q.Q.Z.0.1.2QtQt",
"Qt.j.x.3.4.Q.Q.Q.Q.Q.Q.Q.Q.5.6.7.Q.Q.Q.8.9#.##Qt",
"Qt#a#b#c.Q.Q.Q.Q.Q.Q.Q.Q#d#e#f#g#h.Q.Q.Q#i#j#kQt",
".i#l#m#n.Q.Q.Q.Q.Q.Q.Q.Q#g#o#p#q#f.Q.Q.Q#r#s#t#u",
"#v#w#x.Q.Q.Q.Q.Q.Q.Q.Q.Y#q#o#g#y#z.Q.Q.Q.Q#A#B#C",
"#D#E#F.Q.Q.Q.Q.Q.Q.Q.Q#h#e#g#G#g#H.Q.Q.Q.Q#I#J#K",
"#L#M#N.Q.Q.Q.Q.Q.Q.Q.Q#O#P#G#g#Q.Q.Q.Q.Q.Q#R#S#T",
"#U#V.E.Q.Q.Q.Q.Q.Q.Q.7#g#o#y#W.Q.Q.Q.Q.Q.Q.Q#X#Y",
"#Z#0.D.Q.Q.Q.Q.Q.Q.Q#1.5#2#z.Q.Q.Q.Q.Q.Q.Q.Q#3#4",
"#5#6#7.Q.Q.Q#d#G#8#9a.#G#fa#.Q.Q.Q.Q.Q.Q.Q#Raaab",
"acadae.Q.Q#h#y#W#Gaf#f#G#G.Q.Q.Q.Q.Q.Q.Q.Qagahai",
"ajakal.Q.Q#Gam#1#G#g#y#g#y#d.Q.Q.Q.Q.Q.Q.Qanaoap",
"#uaqaras.Q#1#G#y#zat#G#Q#d#f.Q.Q.Q.Q.Q.Qauavaw.i",
"Qtaxayaz.Q.Q#Q#W#H.Q#Gat#8#f.Q.Q.Q.Q.Q.QaAaBaCQt",
"QtaDaEaFaG.Q.Q.Q.Q.Q#1#G#G#z.Q.Q.Q.Q.QaHaIaJaKQt",
"QtQtaLaMaNaO.Q.Q.Q.Q.QatataP.Q.Q.Q.QaQaRaSaTQtQt",
"QtQtQtaUaVaWaXaY.Q.Q.Q.Q.Q.Q.Q.QaZa0a1a2a3QtQtQt",
"QtQtQtQta4a5.ma6a7a8#R.Q.Qa9b.b#babbbcbdQtQtQtQt",
"QtQtQtQtQtbebfbgbh#Mbibabjbkblbmbnbo##QtQtQtQtQt",
"QtQtQtQtQtQtQtbpbqaibrbsbtbubvbwbxQtQtQtQtQtQtQt"};
