/* XPM */
static const char *Texteditorunderlined[]={
"24 24 213 2",
"Qt c None",
"#o c #926d49",
"bs c #929249",
"bk c #92926d",
".i c #b6926d",
".# c #b6b66d",
"aw c #80804d",
"#b c #99804d",
".w c #998066",
"aG c #99994d",
".j c #b39966",
"b# c #766c53",
".3 c #7b6c45",
"aH c #7b6c4a",
"a0 c #80715d",
".L c #847658",
"aP c #897b53",
".x c #9d8e71",
".X c #a29371",
".W c #6c6250",
"aZ c #6c6254",
"aQ c #6c6557",
".M c #938c7a",
"#7 c #756b4d",
"#u c #7c6b43",
"br c #867554",
"bl c #908361",
"af c #94835b",
"#p c #a19475",
".h c #a4946b",
".a c #a49772",
"#h c #5b5540",
"ao c #5d5746",
"bj c #685f55",
"av c #746e59",
"ba c #7a746a",
".v c #8d8372",
".k c #938b7a",
"#c c #938d7c",
"#A c #514f4f",
"#W c #5a5a5a",
"bq c #5c5c5c",
"#6 c #686666",
".g c #858181",
".b c #878383",
"#v c #888585",
"#G c #676464",
"bp c #696868",
"bm c #727070",
"#P c #747272",
"#V c #777474",
".f c #8f8c8c",
".c c #908d8d",
"#B c #928d8d",
"bo c #757272",
"bn c #797575",
"#K c #7a7979",
"#O c #807e7e",
"#L c #8b8686",
"#H c #949090",
".e c #979494",
".d c #989595",
"#a c #515050",
"ax c #5b5959",
"b. c #686666",
"aF c #6c6a6a",
".K c #878383",
"a1 c #878484",
".y c #979595",
"#n c #545252",
"ag c #585656",
"bi c #706f6f",
"an c #797777",
"bb c #8c8989",
".u c #959292",
"#i c #9e9a9a",
".l c #9e9b9b",
".2 c #6e6b6b",
"aY c #787777",
"aO c #7a7878",
"aI c #807c7c",
".V c #848181",
"aR c #939090",
".N c #a8a5a5",
"ak c #571800",
"#g c #6c6969",
"a. c #6f3100",
"ap c #737171",
"#8 c #757373",
".9 c #783a00",
"#t c #7b7878",
"#0 c #7d3f00",
"ah c #817b71",
"aa c #824401",
"#3 c #874901",
"#m c #888171",
"## c #8a8784",
"a# c #8c4e01",
"aL c #955801",
"#X c #969393",
"bh c #979494",
"a9 c #9f9d9d",
"ay c #a09c9b",
"as c #a46701",
"ae c #a8a4a4",
".1 c #aaa49e",
"#z c #aaa6a6",
"au c #adaaaa",
"#Q c #afacab",
"bc c #b0acac",
"#S c #b27501",
"bg c #b2afaf",
"#f c #b39645",
".t c #b3afaf",
"#9 c #b49a50",
".U c #b6b2b1",
"aq c #b79c50",
"#q c #b9b6b6",
"#M c #bcb7b2",
"ac c #c18401",
"aA c #c18402",
"bf c #c1bbb4",
"#I c #c1bcb8",
".m c #c1bdbd",
"aX c #c2beba",
"#s c #c3a550",
"#C c #c3bfbf",
"#w c #c4c0c0",
"aJ c #c5bfb9",
".s c #c5c1c1",
".J c #c7c0b5",
"#d c #c7c3c2",
"be c #cabfaa",
"bd c #cbc4bf",
"a8 c #ccc2ae",
"aE c #ccc8c4",
".z c #cdcac9",
".r c #cecac9",
"#5 c #cecbca",
".6 c #cf9201",
".8 c #cf9302",
"#F c #cfcac4",
"aN c #d1cabf",
"aS c #d1ccca",
"#j c #d2cdc6",
".q c #d3cdc9",
"aj c #d49802",
".T c #d4b86d",
".n c #d4d1d1",
"#. c #d5aa30",
".p c #d5cfcb",
".o c #d5d1d1",
"#r c #d8bf7c",
"a2 c #d8cfbf",
"#1 c #d99d02",
"#Y c #daad2e",
".I c #dabf75",
".0 c #dbb139",
"#e c #dcc586",
"a7 c #dfbf65",
"#x c #e0b53a",
"#J c #e0d6c2",
"#U c #e0dbd4",
".A c #e0dbd5",
".P c #e1ca8b",
".Y c #e1dddb",
"ar c #e2a602",
".5 c #e2bd54",
"aT c #e2c372",
"#Z c #e3a602",
"a3 c #e3c36e",
".B c #e3ca87",
"am c #e3dac6",
".C c #e4b93e",
"#N c #e4dac5",
"#y c #e5b327",
".H c #e5b839",
"ai c #e6ae0b",
"a6 c #e7b525",
"#l c #e8ae08",
"#R c #e8b00f",
"#k c #e8b214",
"a4 c #e8b72b",
"#D c #e9b213",
".Q c #e9b215",
"aW c #e9c86d",
".S c #eab20f",
".G c #eab312",
".D c #eab315",
".E c #ebb003",
".R c #ecb002",
".F c #ecb003",
"a5 c #ecb005",
"#E c #ecb106",
"aV c #ecb208",
"aU c #ecb20c",
"al c #edb209",
"aM c #eec13c",
"#4 c #efbd2d",
"aD c #efc23d",
"at c #f0d176",
"ad c #f2d279",
".7 c #3f0000",
"#2 c #440500",
"ab c #480900",
"#T c #5c1d00",
"aB c #965801",
"aC c #c18402",
"az c #dbb138",
".4 c #dbd8d7",
".O c #dfdddc",
"aK c #e3b83e",
".Z c #e3be54",
"QtQtQtQtQtQtQt.#.a.b.c.d.e.f.g.h.iQtQtQtQtQtQtQt",
"QtQtQtQtQt.j.k.l.m.n.o.p.q.r.s.t.u.v.wQtQtQtQtQt",
"QtQtQtQt.x.y.z.A.B.C.D.E.F.G.H.I.J.t.K.LQtQtQtQt",
"QtQtQt.M.N.O.P.Q.R.R.R.R.R.R.R.R.S.T.U.V.WQtQtQt",
"QtQt.X.N.Y.Z.R.R.R.R.R.R.R.R.R.R.R.R.0.1.2.3QtQt",
"Qt.j.y.4.5.R.6.7.7.8.R.R.R.R.9.7.9.R.R#.###a#bQt",
"Qt#c#d#e.R.R.8.7.7.8.R.R.R.R.9.7.9.R.R.R#f#g#hQt",
".i#i#j#k.R.R.8.7.7.8.R.R.R.R.9.7.9.R.R.R#l#m#n#o",
"#p#q#r.R.R.R.8.7.7.8.R.R.R.R.9.7.9.R.R.R.R#s#t#u",
"#v#w#x.R.R.R.6.7.7.8.R.R.R.R.9.7.9.R.R.R.R#y#z#A",
"#B#C#D.R.R.R.8.7.7.8.R.R.R.R.9.7.9.R.R.R.R#E#F#G",
"#H#I.F.R.R.R.8.7.7.8.R.R.R.R.9.7.9.R.R.R.R.R#J#K",
"#L#M.E.R.R.R.6.7.7.8.R.R.R.R.9.7.9.R.R.R.R.R#N#O",
"#P#Q#R.R.R.R.8.7.7#S.R.R.R.R#T.7.9.R.R.R.R#E#U#V",
"#W#X#Y.R.R.R#Z.7.7#0.R.R.R#1#2.7#3.R.R.R.R#4#5#6",
"#7#8#9.R.R.R.Ra..7.7#Ta#aaab.7.7ac.R.R.R.Radaeaf",
"#oagahai.R.R.Rajak.7.7.7.7.7.7#3.R.R.R.Ralaman.i",
"Qtaoapaq.R.R.R.Raras.9.9.9#3ac.R.R.R.R.RatauavQt",
"Qtawaxayaz.RaAaBaBaBaBaBaBaBaBaBaBaC.RaDaEaFaGQt",
"QtQtaHaIaJaKaL.7.7.7.7.7.7.7.7.7.7aBaMaNaOaPQtQt",
"QtQtQtaQaRaSaTaU.R.R.R.R.R.R.R.RaVaWaXaYaZQtQtQt",
"QtQtQtQta0a1.ma2a3a4#E.R.Ra5a6a7a8a9b.b#QtQtQtQt",
"QtQtQtQtQt.wbabbbc#Cbda8bebfbgbhbibjawQtQtQtQtQt",
"QtQtQtQtQtQtQtbkbl#6bmbnbobpbqbrbsQtQtQtQtQtQtQt"};
