/* XPM */
static const char *Texteditoralignjustify[]={
"24 24 195 2",
"Qt c None",
"#n c #926d49",
"ba c #929249",
"a4 c #92926d",
".i c #b6926d",
".# c #b6b66d",
"ah c #80804d",
"## c #99804d",
"aT c #998066",
"ao c #99994d",
".w c #999966",
".j c #b39966",
".3 c #766745",
"ap c #76674a",
"aS c #766753",
"aH c #7b6c5d",
"aw c #847653",
".L c #847658",
".x c #988e71",
".X c #9d9371",
".W c #695e50",
"aG c #696254",
"ax c #696257",
".M c #8f857a",
"#1 c #756b4d",
"#t c #7c6b43",
"b# c #867554",
"a5 c #908361",
"#6 c #94835b",
"#o c #a19475",
".h c #a4946b",
".a c #a49772",
"#g c #5b5540",
"ab c #5d5746",
"a3 c #6a6155",
"ag c #746e59",
"aU c #7c766a",
".v c #8d8572",
"#a c #938d7c",
".k c #958d7a",
"#z c #514f4f",
"#V c #5a5a5a",
"b. c #5c5c5c",
"#0 c #686666",
".g c #858181",
".b c #878383",
"#u c #888585",
"#H c #676464",
"a9 c #696868",
"a6 c #727070",
"#Q c #747272",
"#U c #777474",
".f c #8f8c8c",
".c c #908d8d",
"#A c #928d8d",
"a8 c #757272",
"a7 c #797575",
"#L c #7a7979",
"#P c #807e7e",
"#M c #8b8686",
"#I c #949090",
".e c #979494",
".d c #989595",
"#. c #515050",
"ai c #5b5959",
"aR c #686666",
"an c #6c6a6a",
".K c #878383",
"aI c #878484",
".y c #979595",
"#m c #545252",
"#7 c #585656",
"a2 c #706f6f",
"aa c #797777",
"aV c #8c8989",
".u c #959292",
"#h c #9e9a9a",
".l c #9e9b9b",
".2 c #6e6b6b",
"aF c #787777",
"av c #7a7878",
"aq c #807c7c",
".V c #848181",
"ay c #939090",
".N c #a8a5a5",
"#f c #6c6969",
"ac c #737171",
"#2 c #757373",
"#s c #7b7878",
"#8 c #817b71",
"#l c #888171",
".9 c #8a8784",
".7 c #955801",
"#W c #969393",
"a1 c #979494",
"aQ c #9f9d9d",
"aj c #a09c9b",
"#5 c #a8a4a4",
".1 c #aaa49e",
"#y c #aaa6a6",
"af c #adaaaa",
"#R c #afacab",
"aW c #b0acac",
"a0 c #b2afaf",
"#e c #b39645",
".t c #b3afaf",
"#3 c #b49a50",
".U c #b6b2b1",
"ad c #b79c50",
"#p c #b9b6b6",
"#N c #bcb7b2",
".6 c #c18401",
"#D c #c18402",
"aZ c #c1bbb4",
"#J c #c1bcb8",
".m c #c1bdbd",
"aE c #c2beba",
"#r c #c3a550",
"#B c #c3bfbf",
"#v c #c4c0c0",
"ar c #c5bfb9",
".s c #c5c1c1",
".J c #c7c0b5",
"#b c #c7c3c2",
"aY c #cabfaa",
"aX c #cbc4bf",
"aP c #ccc2ae",
"am c #ccc8c4",
".z c #cdcac9",
".r c #cecac9",
"#Z c #cecbca",
"#G c #cfcac4",
"au c #d1cabf",
"az c #d1ccca",
"#i c #d2cdc6",
".q c #d3cdc9",
".T c #d4b86d",
".n c #d4d1d1",
".8 c #d5aa30",
".p c #d5cfcb",
".o c #d5d1d1",
"#q c #d8bf7c",
"aJ c #d8cfbf",
"#X c #daad2e",
".I c #dabf75",
".0 c #dbb139",
"#c c #dcc586",
"aO c #dfbf65",
"#w c #e0b53a",
"#K c #e0d6c2",
"#T c #e0dbd4",
".A c #e0dbd5",
".P c #e1ca8b",
".Y c #e1dddb",
".5 c #e2bd54",
"aA c #e2c372",
"aK c #e3c36e",
".B c #e3ca87",
"a# c #e3dac6",
".C c #e4b93e",
"#O c #e4dac5",
"#x c #e5b327",
".H c #e5b839",
"#9 c #e6ae0b",
"aN c #e7b525",
"#k c #e8ae08",
"#S c #e8b00f",
"#j c #e8b214",
"aL c #e8b72b",
"#C c #e9b213",
".Q c #e9b215",
"aD c #e9c86d",
".S c #eab20f",
".G c #eab312",
".D c #eab315",
".E c #ebb003",
".R c #ecb002",
".F c #ecb003",
"aM c #ecb005",
"#F c #ecb106",
"aC c #ecb208",
"aB c #ecb20c",
"a. c #edb209",
"at c #eec13c",
"#Y c #efbd2d",
"al c #efc23d",
"ae c #f0d176",
"#4 c #f2d279",
"#d c #3f0000",
"#E c #965801",
"as c #b78b3d",
"ak c #dbb138",
".4 c #dbd8d7",
".O c #dfdddc",
".Z c #e3be54",
"QtQtQtQtQtQtQt.#.a.b.c.d.e.f.g.h.iQtQtQtQtQtQtQt",
"QtQtQtQtQt.j.k.l.m.n.o.p.q.r.s.t.u.v.wQtQtQtQtQt",
"QtQtQtQt.x.y.z.A.B.C.D.E.F.G.H.I.J.t.K.LQtQtQtQt",
"QtQtQt.M.N.O.P.Q.R.R.R.R.R.R.R.R.S.T.U.V.WQtQtQt",
"QtQt.X.N.Y.Z.R.R.R.R.R.R.R.R.R.R.R.R.0.1.2.3QtQt",
"Qt.j.y.4.5.6.7.7.7.7.7.7.7.7.7.7.7.7.R.8.9#.##Qt",
"Qt#a#b#c.R.7#d#d#d#d#d#d#d#d#d#d#d#d.R.R#e#f#gQt",
".i#h#i#j.R.R.R.R.R.R.R.R.R.R.R.R.R.R.R.R#k#l#m#n",
"#o#p#q.R.R.7#d#d#d#d#d#d#d#d#d#d#d#d.R.R.R#r#s#t",
"#u#v#w.R.R.6.7.7.7.7.7.7.7.7.7.7.7.7.R.R.R#x#y#z",
"#A#B#C.R.R#D#E#E#E#E#E#E#E#E#E#E#E#E.R.R.R#F#G#H",
"#I#J.F.R.R.7#d#d#d#d#d#d#d#d#d#d#d#d.R.R.R.R#K#L",
"#M#N.E.R.R.R.R.R.R.R.R.R.R.R.R.R.R.R.R.R.R.R#O#P",
"#Q#R#S.R.R.7#d#d#d#d#d#d#d#d#d#d#d#d.R.R.R#F#T#U",
"#V#W#X.R.R#D#E#E#E#E#E#E#E#E#E#E#E#E.R.R.R#Y#Z#0",
"#1#2#3.R.R.6.7.7.7.7.7.7.7.7.7.7.7.7.R.R.R#4#5#6",
"#n#7#8#9.R.7#d#d#d#d#d#d#d#d#d#d#d#d.R.Ra.a#aa.i",
"Qtabacad.R.R.R.R.R.R.R.R.R.R.R.R.R.R.R.RaeafagQt",
"Qtahaiajak.7#d#d#d#d#d#d#d#d#d#d#d#d.RalamanaoQt",
"QtQtapaqaras.7.7.7.7.7.7.7.7.7.7.7.7atauavawQtQt",
"QtQtQtaxayazaAaB.R.R.R.R.R.R.R.RaCaDaEaFaGQtQtQt",
"QtQtQtQtaHaI.maJaKaL#F.R.RaMaNaOaPaQaRaSQtQtQtQt",
"QtQtQtQtQtaTaUaVaW#BaXaPaYaZa0a1a2a3##QtQtQtQtQt",
"QtQtQtQtQtQtQta4a5#0a6a7a8a9b.b#baQtQtQtQtQtQtQt"};
