/* XPM */
static const char *Texteditorcopy[]={
"24 24 221 2",
"Qt c None",
"#A c #926d49",
"bA c #929249",
"aw c #92926d",
".# c #b6926d",
"aE c #80804d",
"#d c #99804d",
"bs c #998066",
"aM c #998080",
"bh c #999966",
".v c #b39966",
".i c #b39980",
".3 c #766c45",
"bg c #767162",
"aN c #7b6c4a",
"aW c #7b766c",
"a7 c #897b5d",
".K c #8e7b58",
".w c #9d9380",
".W c #a29371",
"a6 c #696562",
".V c #6c6250",
"aX c #6c6557",
".L c #8f887e",
"aj c #756b4d",
"#J c #7c6b46",
"bz c #867554",
"bt c #908361",
"ao c #908365",
"#B c #a19475",
".h c #a4946b",
".a c #a49772",
"#p c #5b5340",
"ax c #5d5746",
"br c #6c6659",
"aD c #6e6a61",
"bi c #817a6a",
".u c #8d8572",
".j c #8f8b7e",
"#e c #938d7c",
"#Q c #514f4f",
"ad c #5a5a5a",
"by c #5c5c5c",
"ai c #686666",
".g c #858181",
".b c #878383",
"#K c #888585",
"#Y c #676464",
"bx c #696868",
"bu c #727070",
"a. c #747272",
"ac c #777474",
".f c #8f8c8c",
".c c #908d8d",
"#R c #928d8d",
"bw c #757272",
"bv c #797575",
"#5 c #7a7979",
"#9 c #807e7e",
"#6 c #8b8686",
"#Z c #949090",
".e c #979494",
".d c #989595",
"#c c #515050",
"aF c #5b5959",
"bf c #686666",
"aL c #6c6a6a",
".J c #878383",
"a8 c #878484",
".x c #979595",
"#z c #545252",
"ap c #585656",
"bq c #706f6f",
"av c #797777",
"bj c #8c8989",
".t c #959292",
"#q c #9e9a9a",
".k c #9e9b9b",
".2 c #6e6b6b",
"a5 c #787777",
"aV c #7a7878",
"aO c #807c7c",
".U c #848181",
"aY c #939090",
".M c #a8a5a5",
"aJ c #6b5c30",
"#o c #6c6969",
"ay c #737171",
"ak c #757373",
".Z c #765801",
"#w c #7a6b40",
"#I c #7b7878",
"aq c #817b71",
"#y c #888171",
"#b c #8a8784",
"ae c #969393",
"bp c #979494",
"be c #9f9d9d",
"aG c #a09c9b",
"an c #a8a4a4",
".1 c #aaa49e",
"#P c #aaa6a6",
"aC c #adaaaa",
"a# c #afacab",
"bk c #b0acac",
"aI c #b18402",
"bo c #b2afaf",
"#n c #b39645",
".s c #b3afaf",
"al c #b49a50",
".T c #b6b2b1",
"az c #b79c50",
"#C c #b9b6b6",
"#7 c #bcb7b2",
"aU c #bebcbc",
"bn c #c1bbb4",
"#0 c #c1bcb8",
".l c #c1bdbd",
"a4 c #c2beba",
"#H c #c3a550",
"#S c #c3bfbf",
"#L c #c4c0c0",
"aP c #c5bfb9",
".r c #c5c1c1",
".I c #c7c0b5",
"#f c #c7c3c2",
"bm c #cabfaa",
"bl c #cbc4bf",
"bd c #ccc2ae",
"aK c #ccc8c4",
".y c #cdcac9",
".q c #cecac9",
"ah c #cecbca",
"#X c #cfcac4",
"aZ c #d1ccca",
"#r c #d2cdc6",
".p c #d3cdc9",
".S c #d4b86d",
".m c #d4d1d1",
"#a c #d5aa30",
".o c #d5cfcb",
".n c #d5d1d1",
"aS c #d6b861",
"#D c #d8bf7c",
"aT c #d8c798",
"a9 c #d8cfbf",
"af c #daad2e",
".H c #dabf75",
".0 c #dbb139",
"#g c #dcc586",
"bc c #dfbf65",
"#M c #e0b53a",
"#4 c #e0d6c2",
"ab c #e0dbd4",
".z c #e0dbd5",
"aR c #e1b432",
".O c #e1ca8b",
".X c #e1dddb",
".5 c #e2bd54",
"a0 c #e2c372",
"b. c #e3c36e",
".A c #e3ca87",
"au c #e3dac6",
".B c #e4b93e",
"#8 c #e4dac5",
"#O c #e5b327",
".G c #e5b839",
"ar c #e6ae0b",
"bb c #e7b525",
"#x c #e8ae08",
"aa c #e8b00f",
"#s c #e8b214",
"b# c #e8b72b",
"#T c #e9b213",
".P c #e9b215",
"a3 c #e9c86d",
".R c #eab20f",
".F c #eab312",
".C c #eab315",
".D c #ebb003",
".Q c #ecb002",
".E c #ecb003",
"ba c #ecb005",
"#W c #ecb106",
"a2 c #ecb208",
"a1 c #ecb20c",
"at c #edb209",
"ag c #efbd2d",
"aB c #f0d176",
"am c #f2d279",
"#V c #202020",
"#v c #3f3f3f",
"#U c #404040",
"as c #606060",
"#t c #6f6f6f",
"aA c #765801",
"#G c #7b6c40",
".6 c #7f7f7f",
"## c #9b8c60",
"#F c #9f5f5f",
"#N c #9f9fdf",
"#i c #afafef",
"#u c #bfbfbf",
"#h c #bfbfff",
"#3 c #c0c0c0",
"#m c #cbbc90",
"#1 c #cfcfcf",
"aH c #dbb138",
".4 c #dbd8d7",
"#k c #df2020",
"#. c #df5f5f",
"#j c #df9f9f",
".N c #dfdddc",
"#2 c #dfdfdf",
"aQ c #e3b83e",
".Y c #e3be54",
"#l c #ff0000",
"#E c #ff3f3f",
".9 c #ff7f7f",
".8 c #ffbfbf",
".7 c #ffffff",
"QtQtQtQtQtQtQt.#.a.b.c.d.e.f.g.h.#QtQtQtQtQtQtQt",
"QtQtQtQtQt.i.j.k.l.m.n.o.p.q.r.s.t.u.vQtQtQtQtQt",
"QtQtQtQt.w.x.y.z.A.B.C.D.E.F.G.H.I.s.J.KQtQtQtQt",
"QtQtQt.L.M.N.O.P.Q.Q.Q.Q.Q.Q.Q.Q.R.S.T.U.VQtQtQt",
"QtQt.W.M.X.Y.Z.Z.Z.Z.Z.Z.Z.Q.Q.Q.Q.Q.0.1.2.3QtQt",
"Qt.v.x.4.5.Q.6.7.7.8.9.9#.##.Q.Q.Q.Q.Q#a#b#c#dQt",
"Qt#e#f#g.Q.Q.6.7#h#i#i#j#k#l#m.Q.Q.Q.Q.Q#n#o#pQt",
".##q#r#s.Q.Q.6.7#h#t.6.6#u#l#.#v#w.Q.Q.Q#x#y#z#A",
"#B#C#D.Q.Q.Q.6.7#h#t.7.7#E#l#l#F.7#G.Q.Q.Q#H#I#J",
"#K#L#M.Q.Q.Q.6.7#h#t.7.7#N#E#j.6.7.7#w.Q.Q#O#P#Q",
"#R#S#T.Q.Q.Q.6.7#h#t.7.7#i#N#i#u#U#U#V#m.Q#W#X#Y",
"#Z#0.E.Q.Q.Q.6.7#h#t.7.7#i#i#1#2#2.7.6#3.Q.Q#4#5",
"#6#7.D.Q.Q.Q.6.7#h#t.7.7#i#i#i#i#i.7.6#3.Q.Q#8#9",
"a.a#aa.Q.Q.Q.6.7#h#t.7.7#i#i#i#i#i.7.6#3.Q#Wabac",
"adaeaf.Q.Q.Q.6.7.7.6.7.7#i#i#i#i#i.7.6#3.Qagahai",
"ajakal.Q.Q.Q#v.6.6#t.7.7#i#i#i#i#i.7.6#3.Qamanao",
"#Aapaqar.Q.Q.Q#3#3as.7.7#i#i#i#i#i.7.6#3atauavaw",
"Qtaxayaz.Q.Q.Q.Q.QaA.7.7.7.7.7.7.7.7.6#3aBaCaDQt",
"QtaEaFaGaH.Q.Q.Q.QaIaJasasasasasasasas#3aKaLaMQt",
"QtQtaNaOaPaQ.Q.Q.Q.QaRaSaSaSaSaSaSaSaTaUaVaWQtQt",
"QtQtQtaXaYaZa0a1.Q.Q.Q.Q.Q.Q.Q.Qa2a3a4a5a6QtQtQt",
"QtQtQtQta7a8.la9b.b##W.Q.QbabbbcbdbebfbgQtQtQtQt",
"QtQtQtQtQtbhbibjbk#SblbdbmbnbobpbqbrbsQtQtQtQtQt",
"QtQtQtQtQtQtQtawbtaibubvbwbxbybzbAQtQtQtQtQtQtQt"};
