/* XPM */
static const char *Texteditoritalic[]={
"24 24 232 2",
"Qt c None",
"#C c #926d49",
"bL c #929249",
"bD c #92926d",
".i c #b6926d",
".# c #b6b66d",
"aT c #80804d",
"#c c #99804d",
"a0 c #99994d",
".w c #999966",
".j c #b39966",
".2 c #766745",
"a1 c #766c4a",
".L c #847158",
"bs c #847653",
"a8 c #897b53",
"bh c #897b5d",
".x c #a29371",
".W c #695e50",
"bg c #6c6554",
"a9 c #6c6557",
".M c #938c7a",
"at c #756b4d",
"#K c #7c6b43",
"bK c #867554",
"bE c #908361",
"aA c #94835b",
"#D c #a19475",
".h c #a4946b",
".a c #a49772",
"#q c #5b5540",
"aJ c #5d5746",
"bC c #6e6655",
"aS c #746e59",
"bt c #817a6a",
".v c #8d8372",
".k c #938d7a",
"#d c #938d7c",
"#T c #514f4f",
"al c #5a5a5a",
"bJ c #5c5c5c",
"as c #686666",
".g c #858181",
".b c #878383",
"#L c #888585",
"#1 c #676464",
"bI c #696868",
"bF c #727070",
"ab c #747272",
"ak c #777474",
".f c #8f8c8c",
".c c #908d8d",
"#U c #928d8d",
"bH c #757272",
"bG c #797575",
"#6 c #7a7979",
"aa c #807e7e",
"#7 c #8b8686",
"#2 c #949090",
".e c #979494",
".d c #989595",
"#b c #515050",
"aU c #5b5959",
"br c #686666",
"aZ c #6c6a6a",
".K c #878383",
"bi c #878484",
".y c #979595",
"#B c #545252",
"aB c #585656",
"bB c #706f6f",
"aI c #797777",
"bu c #8c8989",
".u c #959292",
"#r c #9e9a9a",
".l c #9e9b9b",
".1 c #6e6b6b",
"bf c #787777",
"a7 c #7a7878",
"a2 c #807c7c",
".V c #848181",
"b. c #939090",
".N c #a8a5a5",
"#x c #5b1d00",
"ap c #6a2c00",
"#p c #6c6969",
"af c #6f3100",
"aK c #737171",
"a. c #743600",
"au c #757373",
".6 c #783a00",
"aw c #783b00",
"aO c #793a00",
"#J c #7b7878",
".9 c #7d3f00",
"aC c #817b71",
"#O c #824400",
"#A c #888171",
"#a c #8a8784",
".5 c #8c4e01",
"am c #969393",
"bA c #979494",
"ae c #9a5d01",
".7 c #9f6201",
"bq c #9f9d9d",
"aV c #a09c9b",
"#G c #a46701",
"az c #a8a4a4",
"#. c #a96b01",
"aF c #a96c01",
".0 c #aaa49e",
"#S c #aaa6a6",
"aR c #adaaaa",
"ac c #afacab",
"bv c #b0acac",
"ax c #b27501",
"bz c #b2afaf",
"#o c #b39645",
".t c #b3afaf",
"av c #b49a50",
".U c #b6b2b1",
"aL c #b79c50",
"#E c #b9b6b6",
"#Q c #bc8001",
"#8 c #bcb7b2",
"#9 c #c08401",
"aM c #c18401",
"ai c #c18402",
"by c #c1bbb4",
"#3 c #c1bcb8",
".m c #c1bdbd",
"be c #c2beba",
"#I c #c3a550",
"#V c #c3bfbf",
"#M c #c4c0c0",
"a3 c #c5bfb9",
".s c #c5c1c1",
"#u c #c68902",
".J c #c7c0b5",
"#e c #c7c3c2",
"bx c #cabfaa",
"bw c #cbc4bf",
"bp c #ccc2ae",
"aY c #ccc8c4",
".z c #cdcac9",
".r c #cecac9",
"ar c #cecbca",
"aN c #cf9201",
"#w c #cf9302",
"#0 c #cfcac4",
"a6 c #d1cabf",
"b# c #d1ccca",
"#s c #d2cdc6",
".q c #d3cdc9",
".T c #d4b86d",
".n c #d4d1d1",
"## c #d5aa30",
".p c #d5cfcb",
".o c #d5d1d1",
"#F c #d8bf7c",
"bj c #d8cfbf",
"aE c #d99d02",
"an c #daad2e",
".I c #dabf75",
".Z c #dbb139",
"#f c #dcc586",
".8 c #dda101",
"#k c #dea202",
"bo c #dfbf65",
"#N c #e0b53a",
"#5 c #e0d6c2",
"aj c #e0dbd4",
".A c #e0dbd5",
".P c #e1ca8b",
".X c #e1dddb",
".4 c #e2bd54",
"ba c #e2c372",
"#4 c #e3a602",
"ag c #e3a702",
"bk c #e3c36e",
".B c #e3ca87",
"aH c #e3dac6",
".C c #e4b93e",
"a# c #e4dac5",
"#R c #e5b327",
".H c #e5b839",
"aD c #e6ae0b",
"#n c #e7ab02",
"bn c #e7b525",
"#g c #e8ac02",
"#z c #e8ae08",
"ad c #e8b00f",
"#t c #e8b214",
"bl c #e8b72b",
"#W c #e9b213",
".Q c #e9b215",
"bd c #e9c86d",
".S c #eab20f",
".G c #eab312",
".D c #eab315",
".E c #ebb003",
".R c #ecb002",
".F c #ecb003",
"bm c #ecb005",
"#Z c #ecb106",
"bc c #ecb208",
"bb c #ecb20c",
"aG c #edb209",
"a5 c #eec13c",
"aq c #efbd2d",
"aX c #efc23d",
"aQ c #f0d176",
"ay c #f2d279",
"#i c #3f0000",
"#h c #440500",
"#H c #4d0e00",
"#P c #521300",
"#X c #571800",
"#l c #5c1d00",
"ah c #793b01",
"#Y c #7e4001",
"#m c #874901",
"#j c #915301",
"#y c #965801",
"aP c #b77b02",
"#v c #bc8002",
"ao c #d09302",
"aW c #dbb138",
".3 c #dbd8d7",
".O c #dfdddc",
"a4 c #e3b83e",
".Y c #e3be54",
"QtQtQtQtQtQtQt.#.a.b.c.d.e.f.g.h.iQtQtQtQtQtQtQt",
"QtQtQtQtQt.j.k.l.m.n.o.p.q.r.s.t.u.v.wQtQtQtQtQt",
"QtQtQtQt.x.y.z.A.B.C.D.E.F.G.H.I.J.t.K.LQtQtQtQt",
"QtQtQt.M.N.O.P.Q.R.R.R.R.R.R.R.R.S.T.U.V.WQtQtQt",
"QtQt.x.N.X.Y.R.R.R.R.R.R.R.R.R.R.R.R.Z.0.1.2QtQt",
"Qt.j.y.3.4.R.R.R.5.6.7.R.R.R.8.9.6.6#.###a#b#cQt",
"Qt#d#e#f.R.R.R#g#h#i#j.R.R#k#l#i#i#m#n.R#o#p#qQt",
".i#r#s#t.R.R.R#u#i#i#v.R#w#x#i#i#y.R.R.R#z#A#B#C",
"#D#E#F.R.R.R.R#G#i#i#k#w#H#i#i#G.R.R.R.R.R#I#J#K",
"#L#M#N.R.R.R.R#O#i#P#w#H#i#h#Q.R.R.R.R.R.R#R#S#T",
"#U#V#W.R.R.R.R#X#i#l#H#i#i#Y.R.R.R.R.R.R.R#Z#0#1",
"#2#3.F.R.R.R#4#i#i#i#i#i#i#i#w.R.R.R.R.R.R.R#5#6",
"#7#8.E.R.R.R#Q#i#i#i#l#9#i#ia..R.R.R.R.R.R.Ra#aa",
"abacad.R.R.Rae#i#iafag.Rah#i#iai.R.R.R.R.R#Zajak",
"alaman.R.R.Ra.#i#X#g.R.Rao#i#iap.R.R.R.R.Raqaras",
"atauav.R.R.R#H#i#O.R.R.R.Raw#i#iax.R.R.R.RayazaA",
"#CaBaCaD.RaE#i#iaF.R.R.R.Rai#i#i#l.R.R.RaGaHaI.i",
"QtaJaKaL.RaM#l#laN.R.R.R.R.RaO#l#laP.R.RaQaRaSQt",
"QtaTaUaVaW.R.R.R.R.R.R.R.R.R.R.R.R.R.RaXaYaZa0Qt",
"QtQta1a2a3a4.R.R.R.R.R.R.R.R.R.R.R.Ra5a6a7a8QtQt",
"QtQtQta9b.b#babb.R.R.R.R.R.R.R.RbcbdbebfbgQtQtQt",
"QtQtQtQtbhbi.mbjbkbl#Z.R.RbmbnbobpbqbrbsQtQtQtQt",
"QtQtQtQtQt.wbtbubv#VbwbpbxbybzbAbBbC#cQtQtQtQtQt",
"QtQtQtQtQtQtQtbDbEasbFbGbHbIbJbKbLQtQtQtQtQtQtQt"};
