/* XPM */
static const char *Texteditoraligncenter[]={
"24 24 192 2",
"Qt c None",
"#k c #926d49",
"a9 c #929249",
"a. c #92926d",
".# c #b6926d",
"ag c #80664d",
".9 c #99804d",
".v c #999966",
".i c #b39966",
"an c #76674a",
".3 c #7b6c45",
"aw c #807153",
".J c #897b58",
"aH c #897b5d",
".w c #a29371",
".X c #6c6250",
"aG c #6c6554",
"ax c #6c6557",
".K c #938c7a",
"#Y c #756b4d",
"#q c #7c6b43",
"a8 c #806f54",
"a2 c #8a7c61",
"#3 c #90805b",
".h c #9a8a6b",
".a c #9e9072",
"#l c #a19475",
"#d c #5b5540",
"a# c #5b5546",
"a1 c #6e6655",
"af c #726a59",
"aS c #817a6a",
".u c #8d8372",
".j c #938b7a",
"#. c #938d7c",
"#w c #514f4f",
"#S c #5a5a5a",
"a7 c #5c5c5c",
"#X c #686666",
".g c #858181",
".b c #878383",
"#r c #888585",
"#C c #676464",
"a6 c #696868",
"a3 c #727070",
"#N c #747272",
"#R c #777474",
".f c #8f8c8c",
".c c #908d8d",
"#x c #928d8d",
"a5 c #757272",
"a4 c #797575",
"#H c #7a7979",
"#M c #807e7e",
"#I c #8b8686",
"#D c #949090",
".e c #979494",
".d c #989595",
".8 c #515050",
"ah c #5b5959",
"aR c #686666",
"am c #6c6a6a",
".I c #878383",
"aI c #878484",
".x c #979595",
"#j c #545252",
"#4 c #585656",
"a0 c #706f6f",
"#9 c #797777",
"aT c #8c8989",
".t c #959292",
"#e c #9e9a9a",
".k c #9e9b9b",
".2 c #6e6b6b",
"aF c #787777",
"av c #7a7878",
"ao c #807c7c",
".W c #848181",
"ay c #939090",
".L c #a8a5a5",
"#c c #6c6969",
"aa c #737171",
"#Z c #757373",
"#p c #7b7878",
"#5 c #817b71",
"#i c #888171",
".7 c #8a8784",
".Q c #955801",
".D c #955802",
"#T c #969393",
"aZ c #979494",
"aQ c #9f9d9d",
"ai c #a09c9b",
"#2 c #a8a4a4",
".1 c #aaa49e",
"#v c #aaa6a6",
"ae c #adaaaa",
"#O c #afacab",
"aU c #b0acac",
"aY c #b2afaf",
"#b c #b39645",
".s c #b3afaf",
"#0 c #b49a50",
".V c #b6b2b1",
"ab c #b79c50",
"#m c #b9b6b6",
"#J c #bcb7b2",
".C c #be8714",
".E c #bf8711",
"ac c #c18401",
"ar c #c18402",
"aX c #c1bbb4",
"#E c #c1bcb8",
".l c #c1bdbd",
"aE c #c2beba",
"#o c #c3a550",
"#y c #c3bfbf",
"#s c #c4c0c0",
"ap c #c5bfb9",
".r c #c5c1c1",
".H c #c7c0b5",
"## c #c7c3c2",
"aW c #cabfaa",
"aV c #cbc4bf",
"aP c #ccc2ae",
"al c #ccc8c4",
".y c #cdcac9",
".q c #cecac9",
"#W c #cecbca",
"#B c #cfcac4",
"au c #d1cabf",
"az c #d1ccca",
"#f c #d2cdc6",
".p c #d3cdc9",
".U c #d4b86d",
".m c #d4d1d1",
".6 c #d5aa30",
".o c #d5cfcb",
".n c #d5d1d1",
"#n c #d8bf7c",
"aJ c #d8cfbf",
"#U c #daad2e",
".G c #dabf75",
".0 c #dbb139",
"#a c #dcc586",
"aO c #dfbf65",
"#t c #e0b53a",
"#G c #e0d6c2",
"#Q c #e0dbd4",
".z c #e0dbd5",
".N c #e1ca8b",
".Y c #e1dddb",
".5 c #e2bd54",
"aA c #e2c372",
"aK c #e3c36e",
".A c #e3ca87",
"#8 c #e3dac6",
".B c #e4b93e",
"#L c #e4dac5",
"#u c #e5b327",
".F c #e5b839",
"#6 c #e6ae0b",
"aN c #e7b525",
"#h c #e8ae08",
"#P c #e8b00f",
"#g c #e8b214",
"aL c #e8b72b",
"#z c #e9b213",
".O c #e9b215",
"aD c #e9c86d",
".T c #eab20f",
"#K c #ebb003",
".P c #ecb002",
"#F c #ecb003",
"aM c #ecb005",
"#A c #ecb106",
"aC c #ecb208",
"aB c #ecb20c",
"#7 c #edb209",
"at c #eec13c",
"#V c #efbd2d",
"ak c #efc23d",
"ad c #f0d176",
"#1 c #f2d279",
".R c #3f0000",
".S c #965801",
"as c #c18402",
"aj c #dbb138",
".4 c #dbd8d7",
".M c #dfdddc",
"aq c #e3b83e",
".Z c #e3be54",
"QtQtQtQtQtQtQt.#.a.b.c.d.e.f.g.h.#QtQtQtQtQtQtQt",
"QtQtQtQtQt.i.j.k.l.m.n.o.p.q.r.s.t.u.vQtQtQtQtQt",
"QtQtQtQt.w.x.y.z.A.B.C.D.D.E.F.G.H.s.I.JQtQtQtQt",
"QtQtQt.K.L.M.N.O.P.P.Q.R.R.S.P.P.T.U.V.W.XQtQtQt",
"QtQt.w.L.Y.Z.P.P.P.P.P.P.P.P.P.P.P.P.0.1.2.3QtQt",
"Qt.i.x.4.5.P.P.P.R.R.R.R.R.R.R.R.P.P.P.6.7.8.9Qt",
"Qt#.###a.P.P.P.P.Q.Q.Q.Q.Q.Q.Q.Q.P.P.P.P#b#c#dQt",
".##e#f#g.P.P.P.Q.Q.Q.Q.Q.Q.Q.Q.Q.Q.P.P.P#h#i#j#k",
"#l#m#n.P.P.P.P.R.R.R.R.R.R.R.R.R.R.P.P.P.P#o#p#q",
"#r#s#t.P.P.P.P.P.P.P.P.P.P.P.P.P.P.P.P.P.P#u#v#w",
"#x#y#z.P.P.P.R.R.R.R.R.R.R.R.R.R.R.R.P.P.P#A#B#C",
"#D#E#F.P.P.P.S.S.S.S.S.S.S.S.S.S.S.S.P.P.P.P#G#H",
"#I#J#K.P.P.P.P.P.Q.Q.Q.Q.Q.Q.Q.Q.P.P.P.P.P.P#L#M",
"#N#O#P.P.P.P.P.P.R.R.R.R.R.R.R.R.P.P.P.P.P#A#Q#R",
"#S#T#U.P.P.P.P.P.P.P.P.P.P.P.P.P.P.P.P.P.P#V#W#X",
"#Y#Z#0.P.R.R.R.R.R.R.R.R.R.R.R.R.R.R.R.R.P#1#2#3",
"#k#4#5#6.Q.Q.Q.Q.Q.Q.Q.Q.Q.Q.Q.Q.Q.Q.Q.Q#7#8#9a.",
"Qta#aaab.P.P.P.P.Q.Q.Q.Q.Q.Q.Q.Qac.P.P.PadaeafQt",
"Qtagahaiaj.P.P.P.R.R.R.R.R.R.R.R.Q.P.Pakalam.9Qt",
"QtQtanaoapaq.P.P.P.Par.S.Sas.P.P.P.PatauavawQtQt",
"QtQtQtaxayazaAaB.P.P.Q.R.R.S.P.PaCaDaEaFaGQtQtQt",
"QtQtQtQtaHaI.laJaKaL#A.P.PaMaNaOaPaQaRawQtQtQtQt",
"QtQtQtQtQt.vaSaTaU#yaVaPaWaXaYaZa0a1.9QtQtQtQtQt",
"QtQtQtQtQtQtQta.a2#Xa3a4a5a6a7a8a9QtQtQtQtQtQtQt"};
