/* XPM */
static const char *Texteditorpaste[]={
"24 24 248 2",
"Qt c None",
"#x c #926d49",
"b1 c #929249",
"bT c #92926d",
".i c #b6926d",
".# c #b6b66d",
"a8 c #80804d",
"#b c #99804d",
"bd c #998066",
"bI c #999966",
".w c #b39966",
".j c #b39980",
".3 c #7b6c45",
"be c #7b6c4a",
"bl c #807658",
"bH c #847653",
"bw c #897b5d",
".L c #8e7b58",
".X c #9d9380",
".x c #a29880",
".W c #6c6250",
"bv c #6c6554",
"bm c #6c6557",
".M c #938c81",
"aH c #756b4d",
"#L c #7c6b43",
"b0 c #867554",
"bU c #908361",
"aO c #94835b",
"#y c #a19475",
".h c #a4946b",
".a c #a49772",
"#m c #5b5540",
"aZ c #5d5746",
"bS c #6e6655",
"a7 c #726a59",
"bJ c #817a6a",
".v c #8d8572",
"#c c #938d7c",
".k c #958d7a",
"#Y c #514f4f",
"aA c #5a5a5a",
"bZ c #5c5c5c",
"aG c #686666",
".g c #858181",
".b c #878383",
"#M c #888585",
"#8 c #676464",
"bY c #696868",
"bV c #727070",
"ar c #747272",
"az c #777474",
".f c #8f8c8c",
".c c #908d8d",
"#Z c #928d8d",
"bX c #757272",
"bW c #797575",
"aj c #7a7979",
"aq c #807e7e",
"ak c #8b8686",
"#9 c #949090",
".e c #979494",
".d c #989595",
"#a c #515050",
"a9 c #5b5959",
"bG c #686666",
"bc c #6c6a6a",
".K c #878383",
"bx c #878484",
".y c #979595",
"#w c #545252",
"aP c #585656",
"bR c #706f6f",
"aY c #797777",
"bK c #8c8989",
".u c #959292",
"#n c #9e9a9a",
".l c #9e9b9b",
".2 c #6e6b6b",
"bu c #787777",
"bk c #7a7878",
"bf c #807c7c",
".V c #848181",
"bn c #939090",
".N c #a8a5a5",
"#l c #6c6969",
"#U c #6f5254",
"a0 c #737171",
"aI c #757373",
"#K c #7b7878",
"aQ c #817b71",
"a4 c #83650e",
"#v c #888171",
"## c #8a8784",
"a3 c #8e7019",
"#4 c #936e49",
"aB c #969393",
"bQ c #979494",
"bF c #9f9d9d",
"b. c #a09c9b",
"a2 c #a6800c",
"ae c #a78f49",
"aN c #a8a4a4",
".1 c #aaa49e",
"#X c #aaa6a6",
"a6 c #adaaaa",
"aS c #ae9b65",
"as c #afacab",
"bL c #b0acac",
"am c #b29f69",
"bP c #b2afaf",
"#k c #b39645",
".t c #b3afaf",
"aJ c #b49a50",
".U c #b6b2b1",
"a1 c #b79c50",
"#G c #b98a22",
"#z c #b9b6b6",
"#3 c #bb8b26",
"al c #bcb7b2",
".6 c #bfa14a",
"#V c #c08f13",
"bO c #c1bbb4",
"a. c #c1bcb8",
".m c #c1bdbd",
"bt c #c2beba",
"#J c #c3a550",
"#0 c #c3bfbf",
".8 c #c4a64f",
"#N c #c4c0c0",
"#F c #c5931d",
".7 c #c5a750",
"bg c #c5bfb9",
".s c #c5c1c1",
".9 c #c79915",
".J c #c7c0b5",
"#d c #c7c3c2",
"#T c #c89512",
"bN c #cabfaa",
"bM c #cbc4bf",
"bE c #ccc2ae",
"bb c #ccc8c4",
".z c #cdcac9",
".r c #cecac9",
"aF c #cecbca",
"#7 c #cfcac4",
"bj c #d1cabf",
"bo c #d1ccca",
"ah c #d29d03",
"#o c #d2cdc6",
".q c #d3cdc9",
".T c #d4b86d",
".n c #d4d1d1",
"#. c #d5aa30",
".p c #d5cfcb",
".o c #d5d1d1",
"#A c #d8bf7c",
"by c #d8cfbf",
"aC c #daad2e",
".I c #dabf75",
".0 c #dbb139",
"#5 c #dca407",
"#e c #dcc586",
"bD c #dfbf65",
"#O c #e0b53a",
"ai c #e0d6c2",
"ay c #e0dbd4",
".A c #e0dbd5",
".P c #e1ca8b",
".Y c #e1dddb",
".5 c #e2bd54",
"bp c #e2c372",
"bz c #e3c36e",
".B c #e3ca87",
"aX c #e3dac6",
".C c #e4b93e",
"ap c #e4dac5",
"#H c #e5ab03",
"#W c #e5b327",
".H c #e5b839",
"aR c #e6ae0b",
"#I c #e7ac03",
"bC c #e7b525",
"#u c #e8ae08",
"at c #e8b00f",
"#p c #e8b214",
"bA c #e8b72b",
"#1 c #e9b213",
".Q c #e9b215",
"bs c #e9c86d",
".S c #eab20f",
".G c #eab312",
".D c #eab315",
".E c #ebb003",
".R c #ecb002",
".F c #ecb003",
"bB c #ecb005",
"#6 c #ecb106",
"br c #ecb208",
"bq c #ecb20c",
"aW c #edb209",
"bi c #eec13c",
"aE c #efbd2d",
"ba c #efc23d",
"a5 c #f0d176",
"aM c #f2d279",
"ao c #4c4633",
"#i c #4e4b43",
"#R c #5f5ffe",
"#Q c #5f5fff",
"aV c #717171",
"a# c #736c56",
"ax c #737373",
"ad c #765e19",
"#t c #7a6730",
"#D c #7f7ffe",
"#C c #7f7fff",
"ac c #837c66",
"ab c #857d67",
"aa c #857d68",
"#P c #9191ff",
"ag c #93845a",
"#j c #9a7301",
"av c #9b9bff",
"aL c #9f9ffe",
"#r c #9f9fff",
"#B c #a7a7ff",
"an c #a9a9a9",
"#S c #b7b7f3",
"#q c #bdbdff",
"af c #c0b9a3",
"#E c #c3c3f3",
"au c #c3c3ff",
"#f c #c7c7c7",
"aD c #cfcfff",
"aw c #d3d3ff",
"b# c #dbb138",
".4 c #dbd8d7",
"aK c #dbdbff",
".O c #dfdddc",
"bh c #e3b83e",
".Z c #e3be54",
"aU c #eeeeee",
"aT c #efefef",
"#h c #f3f3f3",
"#s c #f8f8fe",
"#2 c #fefefe",
"#g c #ffffff",
"QtQtQtQtQtQtQt.#.a.b.c.d.e.f.g.h.iQtQtQtQtQtQtQt",
"QtQtQtQtQt.j.k.l.m.n.o.p.q.r.s.t.u.v.wQtQtQtQtQt",
"QtQtQtQt.x.y.z.A.B.C.D.E.F.G.H.I.J.t.K.LQtQtQtQt",
"QtQtQt.M.N.O.P.Q.R.R.R.R.R.R.R.R.S.T.U.V.WQtQtQt",
"QtQt.X.N.Y.Z.R.R.R.R.R.R.R.R.R.R.R.R.0.1.2.3QtQt",
"Qt.j.y.4.5.6.7.7.8.9.R.R.R.R.R.R.R.R.R#.###a#bQt",
"Qt#c#d#e.R#f#g#g#h#i#j.R.R.R.R.R.R.R.R.R#k#l#mQt",
".i#n#o#p.R#f#q#r#s#h#t.R.R.R.R.R.R.R.R.R#u#v#w#x",
"#y#z#A.R.R#f#B#C#D#E#t#F#G#H#I.R.R.R.R.R.R#J#K#L",
"#M#N#O.R.R#f#P#Q#R#S#t.R#T#U#V.R.R.R.R.R.R#W#X#Y",
"#Z#0#1.R.R#f#g#g#2#h#t.R#3#4#5.R.R.R.R.R.R#6#7#8",
"#9a..F.R.Ra#aaaaabacad.R.Raeafafafagah.R.R.Raiaj",
"akal.E.R.R.R.R.R.R.R.R.R.Ram#g#2#ganao.R.R.Rapaq",
"arasat.R.R.R.R.R.R.R.R.R.Ramau#Ravawax.R.R#6ayaz",
"aAaBaC.R.R.R.R.R.R.R.R.R.RamaD#D#C#Bax.R.RaEaFaG",
"aHaIaJ.R.R.R.R.R.R.R.R.R.RamaKaL#r#qax.R.RaMaNaO",
"#xaPaQaR.R.R.R.R.R.R.R.R.RaSaTaUaTaTaV.RaWaXaY.i",
"QtaZa0a1.R.R.R.R.R.R.R.R.Ra2a3a3a3a3a4.Ra5a6a7Qt",
"Qta8a9b.b#.R.R.R.R.R.R.R.R.R.R.R.R.R.RbabbbcbdQt",
"QtQtbebfbgbh.R.R.R.R.R.R.R.R.R.R.R.RbibjbkblQtQt",
"QtQtQtbmbnbobpbq.R.R.R.R.R.R.R.RbrbsbtbubvQtQtQt",
"QtQtQtQtbwbx.mbybzbA#6.R.RbBbCbDbEbFbGbHQtQtQtQt",
"QtQtQtQtQtbIbJbKbL#0bMbEbNbObPbQbRbS#bQtQtQtQtQt",
"QtQtQtQtQtQtQtbTbUaGbVbWbXbYbZb0b1QtQtQtQtQtQtQt"};
