/* XPM */
static const char *Texteditorcolor[]={
"24 24 308 2",
"Qt c None",
"#v c #926d49",
"cX c #929249",
"cP c #92926d",
".i c #b6926d",
".# c #b6b66d",
"b0 c #80804d",
"## c #99804d",
"ca c #99994d",
".w c #999966",
".j c #b39966",
".2 c #766745",
"cb c #7b6c4a",
"cE c #847653",
".L c #847b58",
"ci c #897b53",
"ct c #897b5d",
".x c #a29371",
".W c #696250",
"cs c #6c6554",
"cj c #6c6557",
".M c #938c7a",
"bh c #756b4d",
"#J c #7c6b43",
"cW c #867554",
"cQ c #908361",
"by c #94835b",
"#w c #a19475",
".h c #a4946b",
".a c #a49772",
"#j c #5b5540",
"bO c #5d5746",
"cO c #6e6655",
"bZ c #746e59",
"cF c #817a6a",
".v c #8d8572",
"#a c #938d7c",
".k c #958d7a",
"#X c #514f4f",
"a0 c #5a5a5a",
"cV c #5c5c5c",
"bg c #686666",
".g c #858181",
".b c #878383",
"#K c #888585",
"aa c #676464",
"cU c #696868",
"cR c #727070",
"aI c #747272",
"aZ c #777474",
".f c #8f8c8c",
".c c #908d8d",
"#Y c #928d8d",
"cT c #757272",
"cS c #797575",
"aq c #7a7979",
"aH c #807e7e",
"ar c #8b8686",
"ab c #949090",
".e c #979494",
".d c #989595",
"#. c #515050",
"b1 c #5b5959",
"cD c #686666",
"c# c #6c6a6a",
".K c #878383",
"cu c #878484",
".y c #979595",
"#u c #545252",
"bz c #585656",
"cN c #706f6f",
"bN c #797777",
"cG c #8c8989",
".u c #959292",
"#k c #9e9a9a",
".l c #9e9b9b",
".1 c #6e6b6b",
"cr c #787777",
"ch c #7a7878",
"cc c #807c7c",
".V c #848181",
"ck c #939090",
".N c #a8a5a5",
"#i c #6c6969",
"bP c #737171",
"bi c #757373",
"#I c #7b7878",
"#U c #81630d",
"bA c #817b71",
"#t c #888171",
".9 c #8a8784",
"bJ c #8b6f2d",
"#A c #917321",
"au c #938774",
"a1 c #969393",
"cM c #979494",
"b5 c #997b35",
"ae c #998f84",
"am c #9c937a",
"bu c #9d7c2b",
"bW c #9d7e2f",
"cC c #9f9d9d",
"b2 c #a09c9b",
"an c #a17d16",
"aF c #a68010",
".6 c #a6831e",
"bx c #a8a4a4",
".0 c #aaa49e",
"#W c #aaa6a6",
"bY c #adaaaa",
"bR c #ae8515",
"aJ c #afacab",
"cH c #b0acac",
"#C c #b18403",
"cL c #b2afaf",
"#h c #b39645",
".t c #b3afaf",
"bj c #b49a50",
".U c #b6b2b1",
"bC c #b78c17",
"bQ c #b79c50",
"#n c #b98c0c",
"b4 c #b98f1d",
"#x c #b9b6b6",
"as c #bcb7b2",
"a3 c #bd8f11",
"bk c #bd9015",
"b7 c #be9114",
"cK c #c1bbb4",
"ac c #c1bcb8",
".m c #c1bdbd",
"cq c #c2beba",
"#H c #c3a550",
"#Z c #c3bfbf",
"#L c #c4c0c0",
"cd c #c5bfb9",
".s c #c5c1c1",
".J c #c7c0b5",
"#b c #c7c3c2",
"#z c #c99705",
"cJ c #cabfaa",
"#G c #cb9802",
"cI c #cbc4bf",
"cB c #ccc2ae",
"c. c #ccc8c4",
".z c #cdcac9",
"#N c #ce9a01",
".r c #cecac9",
"bf c #cecbca",
"a# c #cfcac4",
"cg c #d1cabf",
"cl c #d1ccca",
"#1 c #d29d04",
"bv c #d29d07",
"#l c #d2cdc6",
"b6 c #d39e06",
".q c #d3cdc9",
"#B c #d49e02",
".T c #d4b86d",
".n c #d4d1d1",
".8 c #d5aa30",
".p c #d5cfcb",
".o c #d5d1d1",
"ad c #d6a002",
"#y c #d8bf7c",
"cv c #d8cfbf",
"#d c #daa202",
"at c #daa302",
"a2 c #daad2e",
".I c #dabf75",
".Z c #dbb139",
"#c c #dcc586",
"#9 c #dea602",
"bK c #dfa704",
"cA c #dfbf65",
"#M c #e0b53a",
"ap c #e0d6c2",
"aY c #e0dbd4",
".A c #e0dbd5",
"ao c #e1a802",
".P c #e1ca8b",
".X c #e1dddb",
".4 c #e2bd54",
"cm c #e2c372",
"cw c #e3c36e",
".B c #e3ca87",
"bM c #e3dac6",
".C c #e4b93e",
"aG c #e4dac5",
"#V c #e5b327",
".H c #e5b839",
"bB c #e6ae0b",
"cz c #e7b525",
"#r c #e8ad02",
"#s c #e8ae08",
"aK c #e8b00f",
"#m c #e8b214",
"cx c #e8b72b",
"#0 c #e9b213",
".Q c #e9b215",
"cp c #e9c86d",
"b8 c #eaaf02",
".S c #eab20f",
".G c #eab312",
".D c #eab315",
".5 c #ebaf02",
".E c #ebb003",
".R c #ecb002",
".F c #ecb003",
"cy c #ecb005",
"a. c #ecb106",
"co c #ecb208",
"cn c #ecb20c",
"bL c #edb209",
"cf c #eec13c",
"be c #efbd2d",
"b9 c #efc23d",
"bX c #f0d176",
"bw c #f2d279",
"#T c #0b0b0b",
"#F c #161511",
"#7 c #191919",
"#D c #252219",
"#R c #2a261a",
"a4 c #363239",
"bU c #36354f",
"#o c #383325",
"aQ c #3a151c",
"aW c #3b3b53",
"#E c #3d3d3d",
"#S c #3e3e3e",
"#p c #3f3f3f",
"bl c #403e55",
"#8 c #41340f",
"bt c #413f4a",
"bs c #444351",
"aR c #463f52",
"bV c #464669",
"#q c #4a3d18",
"bI c #4a4965",
"bF c #4a4a66",
"bm c #515174",
"bd c #524b52",
".7 c #555042",
"bc c #555574",
"bb c #595979",
"bG c #5a5a7d",
"ai c #612b28",
"aL c #625430",
"bD c #6c6278",
"bn c #6e6e8d",
"#f c #707070",
"bH c #717195",
"#g c #72580e",
"aj c #727272",
"az c #730301",
"#e c #735f27",
"bS c #767490",
"ah c #792f17",
"a5 c #79728a",
"aX c #7d6e63",
"aV c #7d7da3",
"#5 c #818089",
"bT c #8383a6",
"aS c #8383b4",
"aU c #8484b5",
"bE c #8785b4",
"aT c #8787b0",
"ay c #891e06",
"#Q c #89827b",
"aP c #94646a",
"aA c #97979d",
"#2 c #9b9289",
"#O c #9c9493",
"#6 c #9c9c9c",
"br c #a49cc8",
"bp c #a7a7ce",
"bq c #a7a7d7",
"ba c #a7afd0",
"bo c #a8a8d8",
"ak c #b4b4b3",
"a6 c #bb909d",
"aE c #bcbccc",
"a9 c #bcbce7",
"a8 c #bcbceb",
"b# c #bdbfea",
"b. c #bfbfdf",
"a7 c #c3a9c6",
"#P c #c3c3e2",
"aO c #c6402b",
"aN c #c69da5",
"aM c #ccccdb",
"ax c #cfbfc2",
"aw c #d36c5a",
"b3 c #dbb138",
"ag c #dbc9c9",
".3 c #dbd8d7",
".O c #dfdddc",
"#4 c #e1e1e3",
"ce c #e3b83e",
".Y c #e3be54",
"al c #eaeaea",
"av c #ede3ec",
"af c #efe1e1",
"#3 c #efeffd",
"aB c #f3f3fe",
"aD c #f5f5fe",
"aC c #f6f6ff",
"QtQtQtQtQtQtQt.#.a.b.c.d.e.f.g.h.iQtQtQtQtQtQtQt",
"QtQtQtQtQt.j.k.l.m.n.o.p.q.r.s.t.u.v.wQtQtQtQtQt",
"QtQtQtQt.x.y.z.A.B.C.D.E.F.G.H.I.J.t.K.LQtQtQtQt",
"QtQtQt.M.N.O.P.Q.R.R.R.R.R.R.R.R.S.T.U.V.WQtQtQt",
"QtQt.x.N.X.Y.R.R.R.R.R.R.R.R.R.R.R.R.Z.0.1.2QtQt",
"Qt.j.y.3.4.R.R.R.R.R.R.R.R.R.R.5.6.7.R.8.9#.##Qt",
"Qt#a#b#c.R.R.R.R.R.R.R.R.R.R#d#e#f#g.R.R#h#i#jQt",
".i#k#l#m.R.R.R.R.R.R.R.R.R#n#o#p#q#r.R.R#s#t#u#v",
"#w#x#y.R.R.R.R.R.R#z#A#B#C#D#E#F#G.R.R.R.R#H#I#J",
"#K#L#M.R.R.R.R.R#N#O#P#Q#R#S#T#U.R.R.R.R.R#V#W#X",
"#Y#Z#0.R.R.R.R#1#2#3#4#5#6#7#8#9.R.R.R.R.Ra.a#aa",
"abac.F.R.R.Radaeafagahaiajakalamanao.R.R.R.Rapaq",
"aras.E.R.RatauavawaxayazaAaBaCaDaEaF.R.R.R.RaGaH",
"aIaJaK.R.RaLaMaNaOaPaQaRaSaTaUaVaWaX.R.R.Ra.aYaZ",
"a0a1a2.R.Ra3a4a5a6a7a8a9b.b#babbbcbd.R.R.Rbebfbg",
"bhbibj.R.R.Rbkblbmbnbobpbqbrbsbtbubv.R.R.Rbwbxby",
"#vbzbAbB.R.R.RbCbDbEbFbGbHbIbJbK.R.R.R.RbLbMbN.i",
"QtbObPbQ.R.R.R.RbRbSbTbUbVbW.R.R.R.R.R.RbXbYbZQt",
"Qtb0b1b2b3.R.R.R.Rb4b5b6b7b8.R.R.R.R.Rb9c.c#caQt",
"QtQtcbcccdce.R.R.R.R.R.R.R.R.R.R.R.RcfcgchciQtQt",
"QtQtQtcjckclcmcn.R.R.R.R.R.R.R.RcocpcqcrcsQtQtQt",
"QtQtQtQtctcu.mcvcwcxa..R.RcyczcAcBcCcDcEQtQtQtQt",
"QtQtQtQtQt.wcFcGcH#ZcIcBcJcKcLcMcNcO##QtQtQtQtQt",
"QtQtQtQtQtQtQtcPcQbgcRcScTcUcVcWcXQtQtQtQtQtQtQt"};
