/* XPM */
static const char *Texteditoralignright[]={
"24 24 193 2",
"Qt c None",
"#o c #926d49",
"b. c #929249",
".i c #92926d",
".# c #b6926d",
"ah c #80664d",
"#b c #99804d",
".w c #998066",
"ao c #99994d",
".j c #b39966",
"ap c #71674a",
".7 c #7b6c45",
"aS c #807153",
"aH c #84765d",
".L c #897658",
"aw c #897b53",
".x c #9d8e71",
".Y c #a29371",
".X c #6c6250",
"aG c #6c6554",
"ax c #6c6557",
".M c #8f887a",
"#1 c #75684d",
"#u c #7c6b43",
"a9 c #867554",
".h c #8d806b",
"a3 c #908361",
"#6 c #94835b",
".a c #948672",
"#p c #9e9075",
"#h c #5b5540",
"ab c #5d5546",
"a2 c #6c6455",
"ag c #746e59",
"aT c #7e766a",
".v c #897e72",
".k c #91897a",
"#c c #938d7c",
"#B c #514f4f",
"#V c #5a5a5a",
"a8 c #5c5c5c",
"#0 c #686666",
".g c #858181",
".b c #878383",
"#v c #888585",
"#H c #676464",
"a7 c #696868",
"a4 c #727070",
"#Q c #747272",
"#U c #777474",
".f c #8f8c8c",
".c c #908d8d",
"#C c #928d8d",
"a6 c #757272",
"a5 c #797575",
"#L c #7a7979",
"#P c #807e7e",
"#M c #8b8686",
"#I c #949090",
".e c #979494",
".d c #989595",
"#a c #515050",
"ai c #5b5959",
"aR c #686666",
"an c #6c6a6a",
".K c #878383",
"aI c #878484",
".y c #979595",
"#n c #545252",
"#7 c #585656",
"a1 c #706f6f",
"aa c #797777",
"aU c #8c8989",
".u c #959292",
"#i c #9e9a9a",
".l c #9e9b9b",
".6 c #6e6b6b",
"aF c #787777",
"av c #7a7878",
"aq c #807c7c",
".W c #848181",
"ay c #939090",
".N c #a8a5a5",
"#g c #6c6969",
"ac c #737171",
"#2 c #757373",
"#t c #7b7878",
"#8 c #817b71",
"#m c #888171",
"## c #8a8784",
".R c #955801",
"#W c #969393",
"a0 c #979494",
"aQ c #9f9d9d",
"aj c #a09c9b",
"#5 c #a8a4a4",
".5 c #aaa49e",
"#A c #aaa6a6",
"af c #adaaaa",
"#R c #afacab",
"aV c #b0acac",
"aZ c #b2afaf",
"#f c #b39645",
".t c #b3afaf",
"#3 c #b49a50",
".V c #b6b2b1",
"ad c #b79c50",
"#q c #b9b6b6",
"#N c #bcb7b2",
"#y c #c18401",
".2 c #c18402",
"aY c #c1bbb4",
"#J c #c1bcb8",
".m c #c1bdbd",
"aE c #c2beba",
"#s c #c3a550",
"#D c #c3bfbf",
"#w c #c4c0c0",
"ar c #c5bfb9",
".s c #c5c1c1",
".J c #c7c0b5",
"#d c #c7c3c2",
"aX c #cabfaa",
"aW c #cbc4bf",
"aP c #ccc2ae",
"am c #ccc8c4",
".z c #cdcac9",
".r c #cecac9",
"#Z c #cecbca",
"#G c #cfcac4",
"au c #d1cabf",
"az c #d1ccca",
"#j c #d2cdc6",
".q c #d3cdc9",
".U c #d4b86d",
".n c #d4d1d1",
"#. c #d5aa30",
".p c #d5cfcb",
".o c #d5d1d1",
"#r c #d8bf7c",
"aJ c #d8cfbf",
"#X c #daad2e",
".I c #dabf75",
".4 c #dbb139",
"#e c #dcc586",
"aO c #dfbf65",
"#x c #e0b53a",
"#K c #e0d6c2",
"#T c #e0dbd4",
".A c #e0dbd5",
".P c #e1ca8b",
".Z c #e1dddb",
".9 c #e2bd54",
"aA c #e2c372",
"aK c #e3c36e",
".B c #e3ca87",
"a# c #e3dac6",
".C c #e4b93e",
"#O c #e4dac5",
"#z c #e5b327",
".H c #e5b839",
"#9 c #e6ae0b",
"aN c #e7b525",
"#l c #e8ae08",
"#S c #e8b00f",
"#k c #e8b214",
"aL c #e8b72b",
"#E c #e9b213",
".Q c #e9b215",
"aD c #e9c86d",
".T c #eab20f",
".G c #eab312",
".D c #eab315",
".E c #ebb003",
".1 c #ecb002",
".F c #ecb003",
"aM c #ecb005",
"#F c #ecb106",
"aC c #ecb208",
"aB c #ecb20c",
"a. c #edb209",
"at c #eec13c",
"#Y c #efbd2d",
"al c #efc23d",
"ae c #f0d176",
"#4 c #f2d279",
".S c #3f0000",
".3 c #965801",
"ak c #dbb138",
".8 c #dbd8d7",
".O c #dfdddc",
"as c #e3b83e",
".0 c #e3be54",
"QtQtQtQtQtQtQt.#.a.b.c.d.e.f.g.h.iQtQtQtQtQtQtQt",
"QtQtQtQtQt.j.k.l.m.n.o.p.q.r.s.t.u.v.wQtQtQtQtQt",
"QtQtQtQt.x.y.z.A.B.C.D.E.F.G.H.I.J.t.K.LQtQtQtQt",
"QtQtQt.M.N.O.P.Q.R.S.S.S.S.S.S.S.T.U.V.W.XQtQtQt",
"QtQt.Y.N.Z.0.1.1.2.3.3.3.3.3.3.3.1.1.4.5.6.7QtQt",
"Qt.j.y.8.9.1.R.R.R.R.R.R.R.R.R.R.1.1.1#.###a#bQt",
"Qt#c#d#e.1.1.S.S.S.S.S.S.S.S.S.S.1.1.1.1#f#g#hQt",
".##i#j#k.1.1.1.1.1.1.1.1.1.1.1.1.1.1.1.1#l#m#n#o",
"#p#q#r.1.1.1.1.1.1.1.R.S.S.S.S.S.1.1.1.1.1#s#t#u",
"#v#w#x.1.1.1.1.1.1.1#y.R.R.R.R.R.1.1.1.1.1#z#A#B",
"#C#D#E.3.3.3.3.3.3.3.3.3.3.3.3.3.1.1.1.1.1#F#G#H",
"#I#J.F.S.S.S.S.S.S.S.S.S.S.S.S.S.1.1.1.1.1.1#K#L",
"#M#N.E.1.1.1.1.1.1.1.1.1.1.1.1.1.1.1.1.1.1.1#O#P",
"#Q#R#S.1.1.1.1.S.S.S.S.S.S.S.S.S.1.1.1.1.1#F#T#U",
"#V#W#X.1.1.1.1.3.3.3.3.3.3.3.3.3.1.1.1.1.1#Y#Z#0",
"#1#2#3.1#y.R.R.R.R.R.R.R.R.R.R.R.1.1.1.1.1#4#5#6",
"#o#7#8#9.R.S.S.S.S.S.S.S.S.S.S.S.1.1.1.1a.a#aa.#",
"Qtabacad.1.1.1.1.1.1.1.1.1.1.1.1.1.1.1.1aeafagQt",
"Qtahaiajak.1.1.S.S.S.S.S.S.S.S.S.1.1.1alamanaoQt",
"QtQtapaqaras.1.R.R.R.R.R.R.R.R.R.1.1atauavawQtQt",
"QtQtQtaxayazaAaB.1.1.1.1.1.1.1.1aCaDaEaFaGQtQtQt",
"QtQtQtQtaHaI.maJaKaL#F.1.1aMaNaOaPaQaRaSQtQtQtQt",
"QtQtQtQtQt.waTaUaV#DaWaPaXaYaZa0a1a2#bQtQtQtQtQt",
"QtQtQtQtQtQtQt.ia3#0a4a5a6a7a8a9b.QtQtQtQtQtQtQt"};
