/* XPM */
static const char *Texteditorprint[]={
"24 24 217 2",
"Qt c None",
"#s c #926d49",
"bw c #929249",
"ay c #92926d",
".i c #b6926d",
".# c #b6b66d",
"#e c #80804d",
"bo c #99804d",
"aM c #998066",
".w c #999966",
".5 c #b39966",
".j c #b39980",
"aN c #71674e",
".4 c #766745",
"aU c #847653",
"a5 c #897b5d",
".L c #897b62",
".X c #a29371",
".x c #a29376",
".W c #696250",
"a4 c #6c6554",
"aV c #6c6557",
".M c #938c7a",
"#C c #756543",
"al c #756b4d",
"bv c #867554",
"ar c #90805b",
"bp c #908361",
"#t c #a19475",
".h c #a4946b",
".a c #a49772",
"#k c #595342",
"az c #5b5549",
"bn c #6e6655",
"aF c #726c59",
"be c #817a6a",
".v c #8b8576",
".k c #938d7c",
"#P c #514f4f",
"af c #5a5a5a",
"bu c #5c5c5c",
"ak c #686666",
".g c #858181",
".b c #878383",
"#D c #888585",
"#X c #676464",
"bt c #696868",
"bq c #727070",
"aa c #747272",
"ae c #777474",
".f c #8f8c8c",
".c c #908d8d",
"#Q c #928d8d",
"bs c #757272",
"br c #797575",
"#3 c #7a7979",
"a# c #807e7e",
"#4 c #8b8686",
"#Y c #949090",
".e c #979494",
".d c #989595",
"#d c #515050",
"aG c #5b5959",
"bd c #686666",
"aL c #6c6a6a",
".K c #878383",
"a6 c #878484",
".y c #979595",
"#r c #545252",
"as c #585656",
"bm c #706f6f",
"ax c #797777",
"bf c #8c8989",
".u c #959292",
"#l c #9e9a9a",
".l c #9e9b9b",
".3 c #6e6b6b",
"a3 c #787777",
"aT c #7a7878",
"aO c #807c7c",
".V c #848181",
"aW c #939090",
".N c #a8a5a5",
"#y c #5b4c20",
"#j c #6c6969",
"aA c #737171",
"am c #757373",
"#o c #765801",
"#h c #7b6c40",
"#B c #7b7878",
"at c #817b71",
"#q c #888171",
"#c c #8a8784",
"aC c #967821",
"ag c #969393",
"bl c #979494",
"#x c #9b8c60",
"bc c #9f9d9d",
"aH c #a09c9b",
"aq c #a8a4a4",
".2 c #aaa49e",
"#O c #aaa6a6",
"#G c #ab9c70",
"aE c #adaaaa",
"ab c #afacab",
"bg c #b0acac",
"ao c #b18401",
"#a c #b18402",
"bk c #b2afaf",
"#i c #b39645",
".t c #b3afaf",
"an c #b49a50",
".0 c #b69841",
".U c #b6b2b1",
"aB c #b79c50",
"#u c #b9b6b6",
".8 c #baab80",
"#5 c #bcb7b2",
"bj c #c1bbb4",
"#Z c #c1bcb8",
".m c #c1bdbd",
"a2 c #c2beba",
"#A c #c3a550",
"#R c #c3bfbf",
"#E c #c4c0c0",
"aP c #c5bfb9",
".s c #c5c1c1",
"#w c #c6a851",
".J c #c7c0b5",
"#f c #c7c3c2",
"bi c #cabfaa",
"bh c #cbc4bf",
"bb c #ccc2ae",
"aK c #ccc8c4",
".z c #cdcac9",
".r c #cecac9",
"aj c #cecbca",
"#W c #cfcac4",
"#z c #d1a422",
"aS c #d1cabf",
"aX c #d1ccca",
"#m c #d2cdc6",
".q c #d3cdc9",
".T c #d4b86d",
".n c #d4d1d1",
"#b c #d5aa30",
".p c #d5cfcb",
".o c #d5d1d1",
"#v c #d8bf7c",
"a7 c #d8cfbf",
"ah c #daad2e",
".I c #dabf75",
".1 c #dbb139",
"#g c #dcc586",
"ba c #dfbf65",
"#F c #e0b53a",
"#2 c #e0d6c2",
"ad c #e0dbd4",
".A c #e0dbd5",
".P c #e1ca8b",
".Y c #e1dddb",
".7 c #e2bd54",
"aY c #e2c372",
"a8 c #e3c36e",
".B c #e3ca87",
"aw c #e3dac6",
".C c #e4b93e",
"a. c #e4dac5",
"#N c #e5b327",
".H c #e5b839",
"au c #e6ae0b",
"b# c #e7b525",
"#p c #e8ae08",
"ac c #e8b00f",
"#n c #e8b214",
"a9 c #e8b72b",
"#S c #e9b213",
".Q c #e9b215",
"a1 c #e9c86d",
".S c #eab20f",
".G c #eab312",
".D c #eab315",
".E c #ebb003",
".R c #ecb002",
".F c #ecb003",
"b. c #ecb005",
"#V c #ecb106",
"a0 c #ecb208",
"aZ c #ecb20c",
"av c #edb209",
"aR c #eec13c",
"ai c #efbd2d",
"aJ c #efc23d",
"aD c #f0d176",
"ap c #f2d279",
"#J c #404040",
"#M c #5f5f5f",
"#8 c #606060",
"#0 c #60df60",
"#. c #7f7f7f",
"#1 c #808080",
"#7 c #909090",
"#9 c #9f9f60",
"#U c #9f9f9f",
"#I c #a0a0a0",
"#T c #ab9c70",
"#K c #b0b0b0",
"## c #bfbfbf",
"#H c #c0c0c0",
"#L c #cfcfcf",
"aI c #dbb138",
".6 c #dbd8d7",
".O c #dfdddc",
"#6 c #dfdfdf",
"aQ c #e3b83e",
".Z c #e3be54",
".9 c #ffffff",
"QtQtQtQtQtQtQt.#.a.b.c.d.e.f.g.h.iQtQtQtQtQtQtQt",
"QtQtQtQtQt.j.k.l.m.n.o.p.q.r.s.t.u.v.wQtQtQtQtQt",
"QtQtQtQt.x.y.z.A.B.C.D.E.F.G.H.I.J.t.K.LQtQtQtQt",
"QtQtQt.M.N.O.P.Q.R.R.R.R.R.R.R.R.S.T.U.V.WQtQtQt",
"QtQt.X.N.Y.Z.R.R.R.0.0.0.0.0.0.0.0.0.1.2.3.4QtQt",
"Qt.5.y.6.7.R.R.R.8.9#.#..9#.#..9###a.R#b#c#d#eQt",
"Qt.k#f#g.R.R.R.0.9###.#.#.#.##.9#h.R.R.R#i#j#kQt",
".i#l#m#n.R.R.R.0.9###.#.#.##.9.9#o.R.R.R#p#q#r#s",
"#t#u#v.R.R.R#w#x.9.9###.##.9.9.9#y.0.0#z.R#A#B#C",
"#D#E#F.R.R#G#H#I#.#.#.#.#.#.#.#.#J#K#L#M.R#N#O#P",
"#Q#R#S.R#T#H#H#H#K#I#I#I#I#I#I#I#K#K#U#J.R#V#W#X",
"#Y#Z.F.R###K#I#I#I#I#I#I#I#I#I#K#0#I#1#J.R.R#2#3",
"#4#5.E.R###I#L#6#6#6#6#6#6#6#7#8#9#I#1#J.R.Ra.a#",
"aaabac.R#U#6.9.9.9.9.9.9.9#U#J#I#H#I#1#J.R#Vadae",
"afagah.R#1#J#J#J#J#J#J#J#J#J#7#H#H#I#J#o.Raiajak",
"alaman.R#h#J#J#J#J#J#J#J#J#J#J#J#J#J#8ao.Rapaqar",
"#sasatau.R#7#I#I#I#I#I#I#I#I#I#I#I#8ao.Ravawaxay",
"QtazaAaB.RaC#o#o#o#o#o#o#o#o#o#o#o#a.R.RaDaEaFQt",
"Qt#eaGaHaI.R.R.R.R.R.R.R.R.R.R.R.R.R.RaJaKaLaMQt",
"QtQtaNaOaPaQ.R.R.R.R.R.R.R.R.R.R.R.RaRaSaTaUQtQt",
"QtQtQtaVaWaXaYaZ.R.R.R.R.R.R.R.Ra0a1a2a3a4QtQtQt",
"QtQtQtQta5a6.ma7a8a9#V.R.Rb.b#babbbcbdaUQtQtQtQt",
"QtQtQtQtQt.wbebfbg#RbhbbbibjbkblbmbnboQtQtQtQtQt",
"QtQtQtQtQtQtQtaybpakbqbrbsbtbubvbwQtQtQtQtQtQtQt"};
