/* XPM */
static const char * textjustify[] = {
"22 22 2 1",
" 	c None",
".	c #000000",
"                      ",
"                      ",
"   .................  ",
"                      ",
"   .................  ",
"                      ",
"   .................  ",
"                      ",
"   .................  ",
"                      ",
"   .................  ",
"                      ",
"   .................  ",
"                      ",
"   .................  ",
"                      ",
"   .................  ",
"                      ",
"   .............      ",
"                      ",
"                      ",
"                      "};
